<svg id="Group_13640" data-name="Group 13640" xmlns="http://www.w3.org/2000/svg" width="24.445" height="24.445" viewBox="0 0 24.445 24.445">
  <ellipse id="Ellipse_312" data-name="Ellipse 312" cx="12.223" cy="12.223" rx="12.223" ry="12.223" transform="translate(0 0)"/>
  <path id="apple-icon" d="M69.494,7.817a3.339,3.339,0,0,1,1.593-2.809,3.446,3.446,0,0,0-2.7-1.462c-1.149-.116-2.242.677-2.826.677s-1.482-.66-2.435-.642a3.612,3.612,0,0,0-3.053,1.85c-1.3,2.258-.333,5.6.935,7.435.62.9,1.358,1.9,2.329,1.868.934-.037,1.288-.605,2.418-.605s1.447.605,2.436.586C69.2,14.7,69.834,13.8,70.45,12.9a8.135,8.135,0,0,0,1.022-2.1,3.259,3.259,0,0,1-1.98-2.985h0ZM67.637,2.333A3.251,3.251,0,0,0,68.4-.024a3.309,3.309,0,0,0-2.173,1.118,3.1,3.1,0,0,0-.784,2.284,2.736,2.736,0,0,0,2.189-1.044Z" transform="translate(-53.636 4.68)" fill="#fff" fill-rule="evenodd"/>
</svg>
