<?xml version="1.0" encoding="UTF-8" standalone="no"?>
<svg
   width="211.655"
   height="232.22501"
   viewBox="0 0 211.655 232.225"
   version="1.1"
   id="svg302"
   sodipodi:docname="fa5b5c4a84a9d45648a75ebd2831f388.svg"
   xmlns:inkscape="http://www.inkscape.org/namespaces/inkscape"
   xmlns:sodipodi="http://sodipodi.sourceforge.net/DTD/sodipodi-0.dtd"
   xmlns="http://www.w3.org/2000/svg"
   xmlns:svg="http://www.w3.org/2000/svg">
  <sodipodi:namedview
     id="namedview304"
     pagecolor="#ffffff"
     bordercolor="#666666"
     borderopacity="1.0"
     inkscape:pageshadow="2"
     inkscape:pageopacity="0.0"
     inkscape:pagecheckerboard="0" />
  <defs
     id="defs13">
    <filter
       id="Path_23001"
       x="0"
       y="0"
       width="211.655"
       height="232.22501"
       filterUnits="userSpaceOnUse">
      <feOffset
         dy="3"
         input="SourceAlpha"
         id="feOffset2" />
      <feGaussianBlur
         stdDeviation="3"
         result="blur"
         id="feGaussianBlur4" />
      <feFlood
         flood-opacity="0.098"
         id="feFlood6" />
      <feComposite
         operator="in"
         in2="blur"
         id="feComposite8"
         result="result1" />
      <feComposite
         in="SourceGraphic"
         in2="result1"
         id="feComposite10" />
    </filter>
  </defs>
  <g
     id="Group_13798"
     data-name="Group 13798"
     transform="translate(-172.35,23.23)">
    <circle
       id="Ellipse_395"
       data-name="Ellipse 395"
       cx="7.3850002"
       cy="7.3850002"
       transform="rotate(-20,392.2588,-946.95563)"
       fill="#494fc7"
       opacity="0.1"
       r="7.3850002" />
    <g
       id="Group_13797"
       data-name="Group 13797">
      <g
         transform="translate(172.35,-23.23)"
         filter="url(#Path_23001)"
         id="g17">
        <path
           id="Path_23001-2"
           data-name="Path 23001"
           d="m 7861.314,1369.272 c 0,0 -25.942,-47.458 3.434,-86.174 29.376,-38.716 21.364,-19.011 35.1,-86.015 13.736,-67.004 83.167,-33.819 83.167,-33.819 0,0 27.086,14.38 61.04,2.95 0.763,0.737 0,203.058 0,203.058 z"
           transform="translate(-7841.74,-1149.05)"
           fill="#ffffff" />
      </g>
    </g>
    <path
       id="Path_26848"
       data-name="Path 26848"
       d="m 93.312,226.941 c 0,0 12.989,-0.154 5.747,-17.949 -7.242,-17.795 2.527,-22.137 15.575,-16.506 13.048,5.631 24.643,0.909 27.094,-8.639 2.451,-9.548 14.479,-2.488 11.365,9.573 -6.107,23.648 29.287,11.557 27.1,-14.1 -2.187,-25.657 12.643,-13.376 19.882,2.036 7.239,15.412 18,23.573 24.32,12.065 6.32,-11.508 11.471,-0.078 4.808,14.725 C 222.54,222.949 230.54,227 230.54,227 Z"
       transform="translate(117.891,-42.711)"
       fill="#c9d6f2" />
    <path
       id="Path_26849"
       data-name="Path 26849"
       d="m 155.023,335 c 0,0 4.384,-2.782 2.073,-10.375 -2.311,-7.593 8.364,-6.189 15.364,-0.66 7,5.529 17.452,-2.393 17.26,-10.893 -0.192,-8.5 7.073,-0.34 6.329,10.1 -0.744,10.44 17.742,7.226 27.975,-8.454 10.233,-15.68 14.277,-3.509 12.049,4.394 -2.228,7.903 21.1,9.161 27.064,2.353 5.964,-6.808 3.794,11.688 0.486,14.509 -3.308,2.821 -108.6,-0.974 -108.6,-0.974 z"
       transform="translate(71.14,-150.76)"
       fill="#eef5ff" />
    <path
       id="Path_26850"
       data-name="Path 26850"
       d="m 537.008,121.229 c 0,0 -1.326,1.115 -0.178,2.2 1.148,1.085 2.2,-1.334 2.2,-1.334 0,0 -0.545,-1.145 -0.8,-1.186 a 4.9,4.9 0 0 0 -1.222,0.32 z"
       transform="translate(-217.755,-9.69)"
       fill="#4f2407" />
    <path
       id="Path_26851"
       data-name="Path 26851"
       d="m 553.975,123.426 c 0,0 2.323,0.371 0.813,3.063 -1.283,2.287 -0.45,2.507 -0.45,2.507 a 1.239,1.239 0 0 1 -1.692,-1.174 c -0.165,-1.673 1.329,-4.396 1.329,-4.396 z"
       transform="translate(-230.083,-11.603)"
       fill="#4f2407" />
    <g
       id="Group_13295"
       data-name="Group 13295"
       transform="translate(225.466,102.238)">
      <path
         id="Path_26852"
         data-name="Path 26852"
         d="m 204.243,142.084 c -2.549,-1.344 -2,-5.805 -0.98,-9.117 1.02,-3.312 -1.483,-4.208 -1.483,-4.208 0,0 -1.24,-2.2 -4.52,-1.249 a 5.656,5.656 0 0 0 -3.858,4.208 4.1,4.1 0 0 0 -1.04,2.149 c -8.581,3.667 -6.6,11.932 -0.823,13.367 6.1,1.513 15.253,-3.806 12.704,-5.15 z"
         transform="translate(-178.215,-116.754)"
         fill="#4f2407" />
      <path
         id="Path_26853"
         data-name="Path 26853"
         d="m 286.963,184.8 c 0,0 -7.45,0.941 -7.905,0.734 -0.478,0.149 -5.042,-1.792 -6.847,-2.419 -1.805,-0.627 -4.624,1.829 -1.473,3.231 0,0 7.457,2.4 8.222,2.238 a 48.519,48.519 0 0 0 8.579,-1.9"
         transform="translate(-240.913,-158.985)"
         fill="#ffa173" />
      <path
         id="Path_26854"
         data-name="Path 26854"
         d="m 274.5,187.119 a 5.981,5.981 0 0 0 0.5,-3.409 c -0.556,-0.235 -1.073,-0.445 -1.485,-0.588 a 1.719,1.719 0 0 0 -0.284,-0.071 h -0.021 a 2.063,2.063 0 0 0 -0.3,-0.024 v 0 l -1.278,1 -0.591,1.679 v 0 a 2.362,2.362 0 0 0 0.18,0.164 l 0.017,0.014 c 0.059,0.048 0.125,0.1 0.194,0.142 l 0.04,0.028 c 0.065,0.042 0.136,0.084 0.21,0.125 l 0.059,0.034 c 0.094,0.05 0.193,0.1 0.3,0.148 0.005,-0.007 1.08,0.339 2.459,0.758 z"
         transform="translate(-242.221,-158.991)"
         fill="#f28a61" />
      <path
         id="Path_26855"
         data-name="Path 26855"
         d="m 244.065,168.85 a 18.076,18.076 0 0 1 4.173,-0.271 9.4,9.4 0 0 1 0.932,0.547 17.1,17.1 0 0 0 5.26,2.639 7.308,7.308 0 0 1 -2.807,4.825 c 0,0 -10.223,-4.239 -7.558,-7.74 z"
         transform="translate(-221.446,-148.037)"
         fill="#437a5c" />
      <path
         id="Path_26856"
         data-name="Path 26856"
         d="m 249.652,185.422 a 26.071,26.071 0 0 0 6.54,3.939 14.752,14.752 0 0 1 -3.515,-3.673 z"
         transform="translate(-226.015,-160.807)"
         fill="#34664a" />
      <g
         id="Group_13284"
         data-name="Group 13284"
         transform="translate(29.365,23.46)">
        <path
           id="Path_26857"
           data-name="Path 26857"
           d="m 276.049,180.66 a 6.061,6.061 0 0 0 0.85,0.268 7.308,7.308 0 0 1 -2.807,4.825 c 0,0 -0.312,-0.129 -0.812,-0.361 a 7.732,7.732 0 0 0 2.769,-4.732 z"
           transform="translate(-273.28,-180.66)"
           fill="#ffffff" />
      </g>
      <path
         id="Path_26858"
         data-name="Path 26858"
         d="m 342.918,188.565 c 0,0 1.111,-0.246 1.225,-0.541 0.114,-0.295 -0.879,-0.251 -0.879,-0.251 0,0 0.856,-0.478 0.865,-0.8 0.009,-0.322 -1.085,0.033 -1.085,0.033 0,0 0.518,-0.347 0.419,-0.626 -0.099,-0.279 -1.828,0.278 -1.828,0.278 0,0 0.476,-0.409 0.482,-0.644 0.006,-0.235 -1.582,-0.088 -3.416,1.491 l 1.4,1.384 c 0,0 2.688,0.627 3.385,0.123 0.658,-0.472 -0.568,-0.447 -0.568,-0.447 z"
         transform="translate(-293.477,-161.19)"
         fill="#ffa173" />
      <path
         id="Path_26859"
         data-name="Path 26859"
         d="m 339.109,189.255 c 0.422,-0.114 0.854,-0.234 1.3,-0.361 a 14.629,14.629 0 0 0 1.907,0.3 l 0.535,-1.078 -0.255,-1.64 c -0.356,0.092 -0.655,0.188 -0.655,0.188 0,0 0.476,-0.409 0.482,-0.644 0,-0.176 -0.9,-0.133 -2.127,0.574 z"
         transform="translate(-293.786,-161.193)"
         fill="#f28a61" />
      <path
         id="Path_26860"
         data-name="Path 26860"
         d="m 346.271,188.947 c 0,0 -0.412,1.166 -1.45,1.078 0,0 1.221,0.522 1.45,-1.078 z"
         transform="translate(-298.113,-163.478)"
         fill="#f28a61" />
      <path
         id="Path_26861"
         data-name="Path 26861"
         d="m 347.7,194.387 a 1.588,1.588 0 0 1 0.785,0.694 0.694,0.694 0 0 0 -0.785,-0.694 z"
         transform="translate(-300.292,-167.599)"
         fill="#f28a61" />
      <path
         id="Path_26862"
         data-name="Path 26862"
         d="m 352.955,191.206 a 3.354,3.354 0 0 0 0.995,-0.056 4.308,4.308 0 0 0 0.959,-0.575 c -0.122,0.313 -0.846,0.719 -0.846,0.719 a 1.942,1.942 0 0 1 -1.108,-0.088 z"
         transform="translate(-304.275,-164.711)"
         fill="#f28a61" />
      <g
         id="Group_13285"
         data-name="Group 13285"
         transform="translate(48.677,26.81)">
        <path
           id="Path_26863"
           data-name="Path 26863"
           d="m 353.83,194.851 a 4.514,4.514 0 0 0 1.107,-0.371 0.121,0.121 0 0 1 0,0.023 c -0.114,0.3 -1.225,0.541 -1.225,0.541 a 2.18,2.18 0 0 1 -0.764,-0.195 3,3 0 0 0 0.882,0.002 z"
           transform="translate(-352.943,-194.48)"
           fill="#f28a61" />
        <path
           id="Path_26864"
           data-name="Path 26864"
           d="m 356.1,196.808 c 0,0 0.067,0 0.161,0 -0.061,0.004 -0.115,0.004 -0.161,0 z"
           transform="translate(-355.331,-196.244)"
           fill="#f28a61" />
      </g>
      <path
         id="Path_26865"
         data-name="Path 26865"
         d="m 353.044,188.526 a 4.586,4.586 0 0 0 0.74,-0.128 4.805,4.805 0 0 0 0.537,-0.438 c 0.044,0.272 -0.422,0.588 -0.422,0.588 a 1.462,1.462 0 0 1 -0.855,-0.022 z"
         transform="translate(-304.331,-162.73)"
         fill="#f28a61" />
      <g
         id="Group_13286"
         data-name="Group 13286"
         transform="translate(3.42,40.073)">
        <path
           id="Path_26866"
           data-name="Path 26866"
           d="m 191.477,398.4 0.15,-3.985 h 2.665 l -0.208,3.985 z"
           transform="translate(-185.362,-359.212)"
           fill="#ffa9a8" />
        <rect
           id="Rectangle_4575"
           data-name="Rectangle 4575"
           width="8.9289999"
           height="0.78200001"
           transform="translate(0,42.121)"
           fill="#3a41a0"
           x="0"
           y="0" />
        <path
           id="Path_26867"
           data-name="Path 26867"
           d="m 171.96,404.517 0.035,1.658 -5.739,1.863 v 0.946 h 8.929 l 0.387,-4.467 z"
           transform="translate(-166.255,-366.863)"
           fill="#2f328e" />
        <path
           id="Path_26868"
           data-name="Path 26868"
           d="m 196.919,249.448 -5.043,36.611 h -4.548 l 1.006,-36.868 z"
           transform="translate(-182.219,-249.19)"
           fill="#fda022" />
        <path
           id="Path_26869"
           data-name="Path 26869"
           d="m 168.11,416.558 v 0 l -1.855,0.6 v 0.946 h 3.356 a 3.787,3.787 0 0 0 -1.501,-1.546 z"
           transform="translate(-166.255,-375.985)"
           fill="#606bbf" />
        <rect
           id="Rectangle_4576"
           data-name="Rectangle 4576"
           width="1.263"
           height="1.263"
           transform="translate(7.431,38.749)"
           fill="#606bbf"
           x="0"
           y="0" />
      </g>
      <g
         id="Group_13287"
         data-name="Group 13287"
         transform="translate(44.259,7.617)">
        <path
           id="Path_26870"
           data-name="Path 26870"
           d="m 334.72,115.375 c 0,0 0.06,-0.032 0.145,-0.07 -0.049,0.026 -0.098,0.05 -0.145,0.07 z"
           transform="translate(-334.72,-115.305)"
           fill="#f28a61" />
      </g>
      <g
         id="Group_13288"
         data-name="Group 13288"
         transform="translate(9.413,40.073)">
        <path
           id="Path_26871"
           data-name="Path 26871"
           d="m 246.571,398.4 -0.15,-3.985 h -2.665 l 0.208,3.985 z"
           transform="translate(-230.962,-359.212)"
           fill="#ffa9a8" />
        <rect
           id="Rectangle_4577"
           data-name="Rectangle 4577"
           width="8.9289999"
           height="0.78200001"
           transform="rotate(180,10.862,21.4515)"
           fill="#3a41a0"
           x="0"
           y="0" />
        <path
           id="Path_26872"
           data-name="Path 26872"
           d="m 245.773,404.517 -0.035,1.658 5.739,1.863 v 0.946 h -8.929 l -0.387,-4.467 z"
           transform="translate(-229.753,-366.863)"
           fill="#2f328e" />
        <path
           id="Path_26873"
           data-name="Path 26873"
           d="M 219.952,249.448 225,286.059 h 4.548 l -1.006,-36.868 z"
           transform="translate(-212.928,-249.19)"
           fill="#fda022" />
        <path
           id="Path_26874"
           data-name="Path 26874"
           d="m 231.267,312.251 c 1.611,-0.99 1.979,-4.621 0.7,-4.276 -1.279,0.345 -1.609,-1.171 -2.063,-3.069 -0.3,-1.264 -1.72,-1.613 -2.633,-1.7 l 1.181,8.573 c 1.021,0.541 2.118,0.9 2.815,0.472 z"
           transform="translate(-218.472,-290.108)"
           fill="#c82951" />
        <path
           id="Path_26875"
           data-name="Path 26875"
           d="m 240.7,353.616 a 3.175,3.175 0 0 0 -2.123,0.863 l 0.529,3.84 h 4.548 l -0.375,-13.746 c -2.5,1.021 -1.826,3.139 -1.345,4.549 0.491,1.446 1.155,4.416 -1.234,4.494 z"
           transform="translate(-227.036,-321.451)"
           fill="#6067e8" />
        <path
           id="Path_26876"
           data-name="Path 26876"
           d="m 206.637,252.891 0.061,2.229 -15.721,0.35 0.061,-2.228 v 0 a 10.159,10.159 0 0 1 2.638,-1.29 c 1.924,-0.711 2.072,-0.059 5.891,0 a 40.994,40.994 0 0 1 7.07,0.939 z"
           transform="translate(-190.977,-251.033)"
           fill="#e27b00" />
        <path
           id="Path_26877"
           data-name="Path 26877"
           d="m 268.246,416.558 v 0 l 1.855,0.6 v 0.946 h -3.356 a 3.787,3.787 0 0 1 1.501,-1.546 z"
           transform="translate(-248.378,-375.985)"
           fill="#606bbf" />
        <rect
           id="Rectangle_4578"
           data-name="Rectangle 4578"
           width="1.263"
           height="1.263"
           transform="rotate(180,7.1465,20.006)"
           fill="#606bbf"
           x="0"
           y="0" />
      </g>
      <path
         id="Path_26878"
         data-name="Path 26878"
         d="m 159.738,101.663 c 0,0 1.827,7.283 2.185,7.632 0.034,0.5 3.5,4.047 4.739,5.5 1.239,1.453 -0.025,4.972 -2.476,2.545 0,0 -4.942,-6.077 -5.069,-6.849 a 48.5,48.5 0 0 1 -1.344,-8.684"
         transform="translate(-156.409,-97.353)"
         fill="#ffa173" />
      <path
         id="Path_26879"
         data-name="Path 26879"
         d="m 177.616,152.722 a 5.986,5.986 0 0 1 2.992,-1.711 c 0.421,0.433 0.8,0.839 1.087,1.171 a 1.738,1.738 0 0 1 0.169,0.239 l 0.011,0.018 a 2.1,2.1 0 0 1 0.131,0.271 v 0 l -0.465,1.553 -1.35,1.16 v 0 a 2.363,2.363 0 0 1 -0.218,-0.109 l -0.019,-0.011 c -0.066,-0.038 -0.134,-0.082 -0.2,-0.129 l -0.04,-0.028 c -0.063,-0.045 -0.128,-0.1 -0.193,-0.15 l -0.053,-0.043 c -0.081,-0.069 -0.163,-0.144 -0.247,-0.227 -0.002,0.001 -0.715,-0.875 -1.605,-2.004 z"
         transform="translate(-171.442,-134.738)"
         fill="#f28a61" />
      <path
         id="Path_26880"
         data-name="Path 26880"
         d="m 189.081,157.355 c 0,0 1.494,-2.112 -2.111,-4.657 a 17.1,17.1 0 0 1 -4.368,-3.943 7.307,7.307 0 0 0 -3.477,4.367 c 0,0 7.662,7.988 9.956,4.233 z"
         transform="translate(-172.586,-133.029)"
         fill="#437a5c" />
      <path
         id="Path_26881"
         data-name="Path 26881"
         d="m 189.081,171 a 1.693,1.693 0 0 0 0.186,-0.4 c -0.745,-0.128 -1.506,-0.282 -2.25,-0.469 a 33.992,33.992 0 0 1 -7.892,-3.367 c 0,0 7.662,7.993 9.956,4.236 z"
         transform="translate(-172.586,-146.677)"
         fill="#34664a" />
      <g
         id="Group_13289"
         data-name="Group 13289"
         transform="translate(6.54,15.726)">
        <path
           id="Path_26882"
           data-name="Path 26882"
           d="m 183.161,149.45 a 6.047,6.047 0 0 1 -0.558,-0.695 7.307,7.307 0 0 0 -3.477,4.367 c 0,0 0.234,0.244 0.631,0.625 a 7.731,7.731 0 0 1 3.404,-4.297 z"
           transform="translate(-179.126,-148.755)"
           fill="#ffffff" />
      </g>
      <path
         id="Path_26883"
         data-name="Path 26883"
         d="m 187.5,185.339 4.848,-23.241 4.729,0.314 1.956,0.5 2.018,-0.026 4.672,0.8 -0.709,23.731 z"
         transform="translate(-178.927,-143.137)"
         fill="#63b589" />
      <path
         id="Path_26884"
         data-name="Path 26884"
         d="m 152.792,85.6 c 0,0 -0.174,-1.124 0.059,-1.338 0.233,-0.214 0.553,0.728 0.553,0.728 0,0 0.135,-0.971 0.43,-1.1 0.295,-0.129 0.363,1.023 0.363,1.023 0,0 0.135,-0.608 0.432,-0.617 0.297,-0.009 0.4,1.8 0.4,1.8 0,0 0.209,-0.592 0.425,-0.683 0.216,-0.091 0.657,1.442 -0.15,3.724 l -1.8,-0.8 c 0,0 -1.56,-2.277 -1.343,-3.109 0.209,-0.78 0.631,0.372 0.631,0.372 z"
         transform="translate(-152.146,-83.884)"
         fill="#ffa173" />
      <path
         id="Path_26885"
         data-name="Path 26885"
         d="m 161.621,93.036 a 1.569,1.569 0 0 0 -0.478,1.743 c 0,0 -0.93,-0.949 0.478,-1.743 z"
         transform="translate(-158.734,-90.817)"
         fill="#f28a61" />
      <path
         id="Path_26886"
         data-name="Path 26886"
         d="m 157.2,96.246 a 1.588,1.588 0 0 0 -0.932,-0.48 0.694,0.694 0 0 1 0.932,0.48 z"
         transform="translate(-155.269,-92.85)"
         fill="#f28a61" />
      <path
         id="Path_26887"
         data-name="Path 26887"
         d="m 157.821,86.162 a 3.346,3.346 0 0 1 -0.309,-0.947 4.313,4.313 0 0 1 0.188,-1.1 2.5,2.5 0 0 0 -0.363,1.049 1.944,1.944 0 0 0 0.484,0.998 z"
         transform="translate(-156.079,-84.058)"
         fill="#f28a61" />
      <g
         id="Group_13290"
         data-name="Group 13290"
         transform="translate(0.583,0.365)">
        <path
           id="Path_26888"
           data-name="Path 26888"
           d="m 154.751,86.554 a 4.508,4.508 0 0 1 -0.056,-1.166 0.12,0.12 0 0 0 -0.02,0.012 c -0.234,0.214 -0.059,1.338 -0.059,1.338 a 2.169,2.169 0 0 0 0.459,0.641 2.989,2.989 0 0 1 -0.324,-0.825 z"
           transform="translate(-154.552,-85.388)"
           fill="#f28a61" />
        <path
           id="Path_26889"
           data-name="Path 26889"
           d="m 154.62,90.494 c 0,0 -0.023,-0.063 -0.061,-0.149 0.019,0.055 0.041,0.102 0.061,0.149 z"
           transform="translate(-154.557,-89.143)"
           fill="#f28a61" />
      </g>
      <path
         id="Path_26890"
         data-name="Path 26890"
         d="M 160.936,87.032 A 4.551,4.551 0 0 1 160.787,86.296 4.908,4.908 0 0 1 161,85.637 c -0.27,0.058 -0.395,0.607 -0.395,0.607 a 1.461,1.461 0 0 0 0.331,0.788 z"
         transform="translate(-158.554,-85.212)"
         fill="#f28a61" />
      <rect
         id="Rectangle_4579"
         data-name="Rectangle 4579"
         width="5.6739998"
         height="1.543"
         transform="rotate(180,13.2395,38.4705)"
         fill="#c82951"
         x="0"
         y="0" />
      <rect
         id="Rectangle_4580"
         data-name="Rectangle 4580"
         width="5.6739998"
         height="1.543"
         transform="translate(8.078,75.399)"
         fill="#c82951"
         x="0"
         y="0" />
      <path
         id="Path_26891"
         data-name="Path 26891"
         d="m 240.786,267.495 a 3.679,3.679 0 0 0 3.29,3.961"
         transform="translate(-219.294,-222.984)"
         fill="none"
         stroke="#eef5ff"
         stroke-miterlimit="10"
         stroke-width="1" />
      <line
         id="Line_5"
         data-name="Line 5"
         x2="3.701"
         y2="27.865"
         transform="translate(18.12,46.725)"
         fill="none"
         stroke="#eef5ff"
         stroke-miterlimit="10"
         stroke-width="1"
         x1="0"
         y1="0" />
      <path
         id="Path_26892"
         data-name="Path 26892"
         d="m 196.823,264.591 a 3.5,3.5 0 0 1 -3.286,3.73"
         transform="translate(-183.503,-220.784)"
         fill="none"
         stroke="#eef5ff"
         stroke-miterlimit="10"
         stroke-width="1" />
      <line
         id="Line_6"
         data-name="Line 6"
         x1="3.701"
         y2="27.865"
         transform="translate(12.736,46.725)"
         fill="none"
         stroke="#eef5ff"
         stroke-miterlimit="10"
         stroke-width="1"
         y1="0"
         x2="0" />
      <line
         id="Line_7"
         data-name="Line 7"
         x1="13.774"
         y1="1.13"
         transform="translate(10.535,43.612)"
         fill="none"
         stroke="#eef5ff"
         stroke-miterlimit="10"
         stroke-width="1"
         x2="0"
         y2="0" />
      <path
         id="Path_26893"
         data-name="Path 26893"
         d="m 228.679,163.881 -1.956,-0.5 h -0.032 c -0.147,1.006 -0.19,3.207 2.253,3.223 1.719,0.011 2.1,-1.4 2.088,-2.693 l -0.335,-0.057 z"
         transform="translate(-208.577,-144.111)"
         fill="#ffffff" />
      <path
         id="Path_26894"
         data-name="Path 26894"
         d="m 229.789,151.808 1.2,0.908 1.2,-0.908 0.291,3.727 a 1.5,1.5 0 0 1 -1.492,1.613 v 0 a 1.5,1.5 0 0 1 -1.492,-1.613 z"
         transform="translate(-210.743,-135.342)"
         fill="#ffa173" />
      <path
         id="Path_26895"
         data-name="Path 26895"
         d="m 232.9,151.969 c 0.067,0.007 0.121,0.012 0.154,0.017 a 0.243,0.243 0 0 1 0.075,0.027 l 0.223,2.859 a 2.021,2.021 0 0 1 -0.951,-0.186 3.223,3.223 0 0 1 -1.691,-2.877 l 1.2,0.908 z"
         transform="translate(-211.665,-135.342)"
         fill="#f28a61" />
      <path
         id="Path_26896"
         data-name="Path 26896"
         d="m 231.4,137.9 a 4.85,4.85 0 0 1 0.356,3.382 c -0.712,2.887 -2.388,2.136 -3.189,1.572 a 5.034,5.034 0 0 1 -1.29,-2.18 c 0,0 -1.083,-0.059 -1.1,-1.053 -0.017,-0.994 0.719,-1 1.127,-0.475 a 1.837,1.837 0 0 1 0.76,-1.561 c 0.975,-0.616 2.776,-0.761 3.336,0.315 z"
         transform="translate(-208.235,-124.204)"
         fill="#ffa173" />
      <path
         id="Path_26897"
         data-name="Path 26897"
         d="m 227.993,146.319 c 0,0 -0.187,-0.23 -0.387,-0.081 -0.2,0.149 -0.089,0.735 0.445,0.76 0,0 -0.337,-0.165 -0.4,-0.405 -0.063,-0.24 0.088,-0.356 0.342,-0.274 z"
         transform="translate(-209.243,-131.084)"
         fill="#f28a61" />
      <g
         id="Group_13292"
         data-name="Group 13292"
         transform="translate(20.812,14.883)">
        <g
           id="Group_13291"
           data-name="Group 13291">
          <path
             id="Path_26898"
             data-name="Path 26898"
             d="m 238.083,145.6 a 0.081,0.081 0 0 1 -0.053,-0.144 0.816,0.816 0 0 1 0.956,-0.038 0.0820061,0.0820061 0 1 1 -0.1,0.13 0.671,0.671 0 0 0 -0.763,0.036 0.08,0.08 0 0 1 -0.04,0.016 z"
             transform="translate(-237.999,-145.279)"
             fill="#4f2407" />
        </g>
        <path
           id="Path_26899"
           data-name="Path 26899"
           d="m 239.122,146.955 a 0.3,0.3 0 0 0 -0.242,0.167 c 0.117,0 0.214,0.062 0.218,0.147 0.004,0.085 -0.09,0.16 -0.209,0.166 a 0.286,0.286 0 0 1 -0.081,-0.008 c 0,0 0,0 0,0.005 0.011,0.255 0.17,0.455 0.355,0.447 0.185,-0.008 0.326,-0.221 0.315,-0.476 -0.011,-0.255 -0.171,-0.456 -0.356,-0.448 z"
           transform="translate(-238.611,-146.549)"
           fill="#4f2407" />
      </g>
      <g
         id="Group_13294"
         data-name="Group 13294"
         transform="translate(22.51,14.797)">
        <g
           id="Group_13293"
           data-name="Group 13293">
          <path
             id="Path_26900"
             data-name="Path 26900"
             d="m 245.087,145.244 a 0.081,0.081 0 0 1 -0.053,-0.144 0.816,0.816 0 0 1 0.956,-0.038 0.0820061,0.0820061 0 1 1 -0.1,0.13 0.671,0.671 0 0 0 -0.763,0.036 0.08,0.08 0 0 1 -0.04,0.016 z"
             transform="translate(-245.003,-144.922)"
             fill="#4f2407" />
        </g>
      </g>
      <path
         id="Path_26901"
         data-name="Path 26901"
         d="m 243.577,148.372 c 0.066,0.149 0.123,0.291 0.188,0.422 a 0.949,0.949 0 0 0 0.231,0.323 c 0.031,0.031 0.168,0.107 0.185,0.246 a 0.339,0.339 0 0 1 -0.122,0.3 0.663,0.663 0 0 1 -0.468,0.17 1.275,1.275 0 0 0 0.32,-0.3 c 0.035,-0.055 0.048,-0.1 0.035,-0.12 a 0.123,0.123 0 0 0 -0.026,-0.036 l -0.084,-0.062 a 0.81,0.81 0 0 1 -0.258,-0.455 1.078,1.078 0 0 1 -0.001,-0.488 z"
         transform="translate(-221.392,-132.739)"
         fill="#ea754b" />
      <path
         id="Path_26902"
         data-name="Path 26902"
         d="m 241.923,155.308 a 4.023,4.023 0 0 1 -1.546,-0.136 c 0,0 0.129,0.746 0.731,0.845 0.602,0.099 0.815,-0.709 0.815,-0.709 z"
         transform="translate(-218.988,-137.891)"
         fill="#ffffff" />
      <path
         id="Path_26903"
         data-name="Path 26903"
         d="m 246.125,146.955 a 0.3,0.3 0 0 0 -0.242,0.167 c 0.117,0 0.214,0.062 0.218,0.147 0.004,0.085 -0.09,0.16 -0.209,0.166 a 0.286,0.286 0 0 1 -0.081,-0.008 c 0,0 0,0 0,0.005 0.011,0.255 0.17,0.455 0.355,0.447 0.185,-0.008 0.326,-0.221 0.315,-0.476 -0.011,-0.255 -0.171,-0.456 -0.356,-0.448 z"
         transform="translate(-223.104,-131.666)"
         fill="#4f2407" />
      <path
         id="Path_26904"
         data-name="Path 26904"
         d="m 227.362,133.077 c 0,0 0.242,0.919 -1.317,1.5 -1.559,0.581 -2.264,1.047 -2.343,2.068 a 1.125,1.125 0 0 1 -1.238,1.047 c -0.1,-0.062 -1,-1.476 -1,-1.476 l 0.78,-2.568 c 0,0 1.858,-1.671 3.228,-1.712 a 13.96,13.96 0 0 0 1.909,-0.144 z"
         transform="translate(-204.656,-120.175)"
         fill="#4f2407" />
    </g>
    <path
       id="Path_26911"
       data-name="Path 26911"
       d="m 434.94,52.607 c 0,0 -0.52,-1.275 1.337,-2.512 a 2.013,2.013 0 0 0 -0.33,-3.589 c -0.99,-0.248 1.108,-1.135 2.534,0.351 1.426,1.486 1.736,1.238 1.406,0.31 -0.33,-0.928 1.651,0.371 1.589,2.868 -0.062,2.497 -1.065,0.552 -2.767,0.874 a 2.547,2.547 0 0 0 -2.349,2.553 c 0.103,0.988 -1.135,0.282 -1.42,-0.855 z"
       transform="translate(-140.87,47.041)"
       fill="#4ca573" />
    <path
       id="Path_26912"
       data-name="Path 26912"
       d="m 600.848,109.973 c 0,0 -4.035,6.7 -4.5,6.94 -0.186,0.487 -4.718,2.968 -6.395,4.04 -1.677,1.072 -1.487,4.962 1.693,3.289 0,0 6.772,-4.553 7.134,-5.283 a 50.558,50.558 0 0 0 3.979,-8.243"
       transform="translate(-257.565,-1.411)"
       fill="#ffa173" />
    <path
       id="Path_26913"
       data-name="Path 26913"
       d="m 595.618,154.434 a 6.235,6.235 0 0 0 -2.461,-2.615 c -0.552,0.3 -1.056,0.591 -1.439,0.836 a 1.768,1.768 0 0 0 -0.241,0.187 l -0.017,0.015 a 2.135,2.135 0 0 0 -0.213,0.23 v 0 l -0.009,1.688 0.992,1.566 v 0 a 2.375,2.375 0 0 0 0.25,-0.042 h 0.023 c 0.078,-0.018 0.159,-0.041 0.242,-0.067 l 0.048,-0.015 c 0.077,-0.026 0.157,-0.057 0.238,-0.091 l 0.065,-0.026 c 0.1,-0.044 0.206,-0.094 0.315,-0.151 0,-0.005 0.976,-0.661 2.207,-1.515 z"
       transform="translate(-259.329,-33.113)"
       fill="#f28a61" />
    <path
       id="Path_26914"
       data-name="Path 26914"
       d="m 558.928,155.1 a 18.837,18.837 0 0 1 2.47,-3.589 9.847,9.847 0 0 1 1.049,-0.41 c 4.1,-1.351 5.551,-2.6 5.551,-2.6 a 7.613,7.613 0 0 1 2.136,5.408 c 0,0 -10.061,5.632 -11.206,1.191 z"
       transform="translate(-234.851,-30.601)"
       fill="#4749d8" />
    <path
       id="Path_26915"
       data-name="Path 26915"
       d="m 574.465,173.623 a 27.162,27.162 0 0 0 7.44,-2.809 39.469,39.469 0 0 1 -7.293,1.077 z"
       transform="translate(-246.622,-47.503)"
       fill="#2f328e" />
    <g
       id="Group_13302"
       data-name="Group 13302"
       transform="translate(332.38,117.903)">
      <path
         id="Path_26916"
         data-name="Path 26916"
         d="m 593.178,149.026 a 6.331,6.331 0 0 0 0.767,-0.522 7.613,7.613 0 0 1 2.136,5.408 c 0,0 -0.307,0.172 -0.819,0.431 a 8.055,8.055 0 0 0 -2.084,-5.317 z"
         transform="translate(-593.178,-148.504)"
         fill="#ffffff" />
    </g>
    <path
       id="Path_26917"
       data-name="Path 26917"
       d="m 641.2,96.289 c 0,0 0.516,-1.067 0.348,-1.351 -0.168,-0.284 -0.773,0.557 -0.773,0.557 0,0 0.161,-1.009 -0.095,-1.222 -0.256,-0.213 -0.672,0.908 -0.672,0.908 0,0 0.05,-0.647 -0.242,-0.746 -0.292,-0.099 -0.952,1.674 -0.952,1.674 0,0 -0.028,-0.653 -0.216,-0.81 -0.188,-0.157 -1.093,1.238 -0.983,3.756 l 2.036,-0.254 c 0,0 2.247,-1.795 2.284,-2.689 0.035,-0.842 -0.735,0.177 -0.735,0.177 z"
       transform="translate(-294.456,10.504)"
       fill="#ffa173" />
    <path
       id="Path_26918"
       data-name="Path 26918"
       d="m 642.423,101.932 a 1.634,1.634 0 0 1 -0.054,1.882 c 0,0 1.215,-0.663 0.054,-1.882 z"
       transform="translate(-298.064,4.681)"
       fill="#f28a61" />
    <path
       id="Path_26919"
       data-name="Path 26919"
       d="m 645.039,106.863 a 1.656,1.656 0 0 1 1.074,-0.194 0.723,0.723 0 0 0 -1.074,0.194 z"
       transform="translate(-300.086,1.214)"
       fill="#f28a61" />
    <path
       id="Path_26920"
       data-name="Path 26920"
       d="m 647.437,96.635 a 3.494,3.494 0 0 0 0.6,-0.85 4.491,4.491 0 0 0 0.148,-1.155 2.6,2.6 0 0 1 0.042,1.156 c -0.445,0.714 -0.79,0.849 -0.79,0.849 z"
       transform="translate(-301.904,10.213)"
       fill="#f28a61" />
    <g
       id="Group_13303"
       data-name="Group 13303"
       transform="translate(346.092,105.423)">
      <path
         id="Path_26921"
         data-name="Path 26921"
         d="m 650.316,98.167 a 4.7,4.7 0 0 0 0.411,-1.144 0.122,0.122 0 0 1 0.016,0.019 c 0.168,0.284 -0.348,1.351 -0.348,1.351 a 2.261,2.261 0 0 1 -0.652,0.5 3.115,3.115 0 0 0 0.573,-0.726 z"
         transform="translate(-649.743,-97.023)"
         fill="#f28a61" />
      <path
         id="Path_26922"
         data-name="Path 26922"
         d="m 652.433,102.269 c 0,0 0.043,-0.056 0.106,-0.13 -0.039,0.046 -0.07,0.09 -0.106,0.13 z"
         transform="translate(-651.781,-100.899)"
         fill="#f28a61" />
    </g>
    <path
       id="Path_26923"
       data-name="Path 26923"
       d="m 645.149,96.524 a 4.765,4.765 0 0 0 0.372,-0.688 5.119,5.119 0 0 0 -0.011,-0.721 c 0.251,0.139 0.208,0.725 0.208,0.725 -0.172,0.401 -0.632,0.789 -0.569,0.684 z"
       transform="translate(-300.166,9.845)"
       fill="#f28a61" />
    <g
       id="Group_13304"
       data-name="Group 13304"
       transform="translate(303.992,140.521)">
      <path
         id="Path_26924"
         data-name="Path 26924"
         d="m 502.351,397.245 0.156,-4.151 h 2.776 l -0.216,4.151 z"
         transform="translate(-495.982,-356.419)"
         fill="#ffa9a8" />
      <rect
         id="Rectangle_4581"
         data-name="Rectangle 4581"
         width="9.3009996"
         height="0.815"
         transform="translate(0,43.878)"
         fill="#8e412f"
         x="0"
         y="0" />
      <path
         id="Path_26925"
         data-name="Path 26925"
         d="m 482.02,403.614 0.036,1.728 -5.979,1.94 v 0.985 h 9.3 l 0.4,-4.653 z"
         transform="translate(-476.077,-364.389)"
         fill="#fda022" />
      <path
         id="Path_26926"
         data-name="Path 26926"
         d="m 508.02,242.077 -5.254,38.138 h -4.737 l 1.048,-38.406 z"
         transform="translate(-492.707,-241.808)"
         fill="#63b589" />
      <path
         id="Path_26927"
         data-name="Path 26927"
         d="m 511.831,342.749 c 0.124,2.847 -2.516,2.971 -1.608,4.539 0.445,0.768 1.543,0.783 2.548,0.6 l 1.105,-8.023 c 0,0 -2.169,0.035 -2.045,2.884 z"
         transform="translate(-501.801,-316.094)"
         fill="#6067e8" />
      <path
         id="Path_26928"
         data-name="Path 26928"
         d="m 478.01,416.157 v 0 l -1.933,0.627 v 0.985 h 3.5 a 3.944,3.944 0 0 0 -1.567,-1.612 z"
         transform="translate(-476.077,-373.892)"
         fill="#8e412f" />
      <rect
         id="Rectangle_4582"
         data-name="Rectangle 4582"
         width="1.316"
         height="1.316"
         transform="translate(7.741,40.366)"
         fill="#8e412f"
         x="0"
         y="0" />
    </g>
    <g
       id="Group_13305"
       data-name="Group 13305"
       transform="translate(346.535,106.711)">
      <path
         id="Path_26929"
         data-name="Path 26929"
         d="m 651.569,102.411 c 0,0 0.062,-0.033 0.151,-0.073 -0.051,0.027 -0.102,0.052 -0.151,0.073 z"
         transform="translate(-651.569,-102.338)"
         fill="#f28a61" />
    </g>
    <g
       id="Group_13306"
       data-name="Group 13306"
       transform="translate(310.235,140.521)">
      <path
         id="Path_26930"
         data-name="Path 26930"
         d="m 559.744,397.245 -0.156,-4.151 h -2.776 l 0.216,4.151 z"
         transform="translate(-543.483,-356.419)"
         fill="#ffa9a8" />
      <rect
         id="Rectangle_4583"
         data-name="Rectangle 4583"
         width="9.3009996"
         height="0.815"
         transform="rotate(180,11.315,22.3465)"
         fill="#8e412f"
         x="0"
         y="0" />
      <path
         id="Path_26931"
         data-name="Path 26931"
         d="m 558.912,403.614 -0.037,1.728 5.979,1.94 v 0.985 h -9.3 l -0.4,-4.653 z"
         transform="translate(-542.224,-364.389)"
         fill="#fda022" />
      <path
         id="Path_26932"
         data-name="Path 26932"
         d="m 532.014,242.077 5.254,38.138 h 4.737 l -1.048,-38.406 z"
         transform="translate(-524.697,-241.808)"
         fill="#63b589" />
      <path
         id="Path_26933"
         data-name="Path 26933"
         d="m 546.8,350.223 c 0.107,-0.049 0.212,-0.1 0.311,-0.154 2.166,-1.184 2.693,-6.8 1.547,-6.769 -1.146,0.031 -2.3,-1.542 -1.414,-2.507 a 2.2,2.2 0 0 0 -0.442,-3.373 7.069,7.069 0 0 1 -2.088,-2.344 z"
         transform="translate(-534.315,-312.466)"
         fill="#ff9f24" />
      <path
         id="Path_26934"
         data-name="Path 26934"
         d="m 518.144,245.664 0.063,2.322 -16.377,0.364 0.063,-2.321 v 0 a 10.6,10.6 0 0 1 2.748,-1.344 c 2,-0.74 2.159,-0.062 6.137,0 a 42.717,42.717 0 0 1 7.366,0.979 z"
         transform="translate(-501.831,-243.728)"
         fill="#437a5c" />
      <path
         id="Path_26935"
         data-name="Path 26935"
         d="m 582.322,416.157 v 0 l 1.933,0.627 v 0.985 h -3.5 a 3.945,3.945 0 0 1 1.567,-1.612 z"
         transform="translate(-561.625,-373.892)"
         fill="#8e412f" />
      <rect
         id="Rectangle_4584"
         data-name="Rectangle 4584"
         width="1.316"
         height="1.316"
         transform="rotate(180,7.4445,20.8405)"
         fill="#8e412f"
         x="0"
         y="0" />
    </g>
    <path
       id="Path_26936"
       data-name="Path 26936"
       d="m 469.288,88.128 c 0,0 1.9,7.587 2.277,7.95 0.036,0.52 3.646,4.216 4.937,5.731 1.291,1.515 -0.026,5.18 -2.579,2.652 0,0 -5.148,-6.331 -5.281,-7.135 a 50.551,50.551 0 0 1 -1.4,-9.046"
       transform="translate(-165.391,15.139)"
       fill="#ffa173" />
    <path
       id="Path_26937"
       data-name="Path 26937"
       d="m 487.912,141.317 a 6.235,6.235 0 0 1 3.117,-1.783 c 0.439,0.451 0.837,0.873 1.132,1.22 a 1.815,1.815 0 0 1 0.176,0.249 l 0.012,0.019 a 2.17,2.17 0 0 1 0.137,0.282 v 0 l -0.486,1.618 -1.4,1.208 v 0 a 2.437,2.437 0 0 1 -0.227,-0.113 l -0.02,-0.011 c -0.069,-0.04 -0.14,-0.085 -0.211,-0.135 l -0.042,-0.029 c -0.066,-0.047 -0.133,-0.1 -0.2,-0.156 l -0.055,-0.044 c -0.084,-0.072 -0.17,-0.15 -0.257,-0.236 -0.006,-0.001 -0.748,-0.914 -1.676,-2.089 z"
       transform="translate(-181.051,-23.806)"
       fill="#f28a61" />
    <path
       id="Path_26938"
       data-name="Path 26938"
       d="m 499.856,146.143 c 0,0 1.557,-2.2 -2.2,-4.852 -3.526,-2.489 -4.55,-4.108 -4.55,-4.108 a 7.613,7.613 0 0 0 -3.622,4.549 c 0,0 7.981,8.322 10.372,4.411 z"
       transform="translate(-182.242,-22.025)"
       fill="#4749d8" />
    <path
       id="Path_26939"
       data-name="Path 26939"
       d="m 499.856,160.36 a 1.764,1.764 0 0 0 0.194,-0.414 c -0.777,-0.133 -1.569,-0.294 -2.343,-0.488 a 35.415,35.415 0 0 1 -8.221,-3.508 c 0,0 7.979,8.321 10.37,4.41 z"
       transform="translate(-182.242,-36.242)"
       fill="#2f328e" />
    <g
       id="Group_13307"
       data-name="Group 13307"
       transform="translate(307.243,115.159)">
      <path
         id="Path_26940"
         data-name="Path 26940"
         d="m 493.688,137.908 a 6.318,6.318 0 0 1 -0.582,-0.724 7.613,7.613 0 0 0 -3.622,4.549 c 0,0 0.244,0.254 0.657,0.651 a 8.054,8.054 0 0 1 3.547,-4.476 z"
         transform="translate(-489.485,-137.184)"
         fill="#ffffff" />
    </g>
    <path
       id="Path_26941"
       data-name="Path 26941"
       d="m 498.2,175.294 5.05,-24.21 4.926,0.327 2.038,0.516 2.1,-0.027 4.867,0.832 -0.738,24.72 z"
       transform="translate(-188.848,-32.555)"
       fill="#6067e8" />
    <path
       id="Path_26942"
       data-name="Path 26942"
       d="m 462.053,71.394 c 0,0 -0.182,-1.171 0.062,-1.394 0.244,-0.223 0.576,0.759 0.576,0.759 0,0 0.141,-1.012 0.447,-1.141 0.306,-0.129 0.378,1.065 0.378,1.065 0,0 0.141,-0.633 0.45,-0.643 0.309,-0.01 0.422,1.879 0.422,1.879 0,0 0.218,-0.617 0.443,-0.711 0.225,-0.094 0.684,1.5 -0.156,3.879 l -1.873,-0.838 c 0,0 -1.625,-2.372 -1.4,-3.239 0.212,-0.815 0.651,0.384 0.651,0.384 z"
       transform="translate(-160.951,29.169)"
       fill="#ffa173" />
    <path
       id="Path_26943"
       data-name="Path 26943"
       d="m 471.25,79.141 a 1.634,1.634 0 0 0 -0.5,1.816 c 0,0 -0.967,-0.989 0.5,-1.816 z"
       transform="translate(-167.813,21.947)"
       fill="#f28a61" />
    <path
       id="Path_26944"
       data-name="Path 26944"
       d="m 466.644,82.485 a 1.656,1.656 0 0 0 -0.97,-0.5 0.723,0.723 0 0 1 0.97,0.5 z"
       transform="translate(-164.204,19.83)"
       fill="#f28a61" />
    <path
       id="Path_26945"
       data-name="Path 26945"
       d="m 467.291,71.981 a 3.489,3.489 0 0 1 -0.322,-0.987 4.485,4.485 0 0 1 0.2,-1.148 2.6,2.6 0 0 0 -0.378,1.093 2.026,2.026 0 0 0 0.5,1.042 z"
       transform="translate(-165.047,28.989)"
       fill="#f28a61" />
    <g
       id="Group_13308"
       data-name="Group 13308"
       transform="translate(301.037,99.157)">
      <path
         id="Path_26946"
         data-name="Path 26946"
         d="m 464.093,72.389 a 4.688,4.688 0 0 1 -0.059,-1.215 0.116,0.116 0 0 0 -0.022,0.013 c -0.243,0.223 -0.062,1.394 -0.062,1.394 a 2.266,2.266 0 0 0 0.478,0.668 3.12,3.12 0 0 1 -0.335,-0.86 z"
         transform="translate(-463.886,-71.174)"
         fill="#f28a61" />
      <path
         id="Path_26947"
         data-name="Path 26947"
         d="m 463.957,76.493 c 0,0 -0.024,-0.066 -0.064,-0.155 0.02,0.054 0.041,0.107 0.064,0.155 z"
         transform="translate(-463.891,-75.086)"
         fill="#f28a61" />
    </g>
    <path
       id="Path_26948"
       data-name="Path 26948"
       d="m 470.536,72.887 a 4.815,4.815 0 0 1 -0.155,-0.767 5.076,5.076 0 0 1 0.222,-0.687 c -0.281,0.06 -0.411,0.632 -0.411,0.632 a 1.522,1.522 0 0 0 0.344,0.822 z"
       transform="translate(-167.626,27.786)"
       fill="#f28a61" />
    <path
       id="Path_26949"
       data-name="Path 26949"
       d="M 553.717,260.876 A 3.833,3.833 0 0 0 557.144,265"
       transform="translate(-230.9,-115.732)"
       fill="none"
       stroke="#eef5ff"
       stroke-miterlimit="10"
       stroke-width="1" />
    <line
       id="Line_8"
       data-name="Line 8"
       x2="3.8559999"
       y2="29.027"
       transform="translate(319.305,147.45)"
       fill="none"
       stroke="#eef5ff"
       stroke-miterlimit="10"
       stroke-width="1"
       x1="0"
       y1="0" />
    <path
       id="Path_26950"
       data-name="Path 26950"
       d="m 507.92,257.851 a 3.642,3.642 0 0 1 -3.423,3.885"
       transform="translate(-193.615,-113.441)"
       fill="none"
       stroke="#eef5ff"
       stroke-miterlimit="10"
       stroke-width="1" />
    <line
       id="Line_9"
       data-name="Line 9"
       x1="3.8559999"
       y2="29.027"
       transform="translate(313.697,147.45)"
       fill="none"
       stroke="#eef5ff"
       stroke-miterlimit="10"
       stroke-width="1"
       y1="0"
       x2="0" />
    <line
       id="Line_10"
       data-name="Line 10"
       x1="14.348"
       y1="1.177"
       transform="translate(311.404,144.208)"
       fill="none"
       stroke="#eef5ff"
       stroke-miterlimit="10"
       stroke-width="1"
       x2="0"
       y2="0" />
    <path
       id="Path_26951"
       data-name="Path 26951"
       d="m 542.284,152.865 -2.1,0.027 -2.038,-0.516 -0.267,-0.018 c -0.281,1.292 -0.183,2.757 1.531,3.127 2.362,0.51 2.891,-1.49 3.005,-2.6 z"
       transform="translate(-218.812,-33.521)"
       fill="#ffffff" />
    <path
       id="Path_26952"
       data-name="Path 26952"
       d="m 544.331,139.5 -1.427,0.651 -1.016,-1.2 -1.14,3.724 a 1.559,1.559 0 0 0 1.152,1.978 v 0 a 1.559,1.559 0 0 0 1.882,-1.3 z"
       transform="translate(-221.026,-23.371)"
       fill="#ffa173" />
    <path
       id="Path_26953"
       data-name="Path 26953"
       d="m 542.917,139.778 c -0.07,-0.009 -0.125,-0.015 -0.16,-0.018 a 0.258,0.258 0 0 0 -0.083,0.01 l -0.874,2.856 a 2.109,2.109 0 0 0 1.009,0.026 3.358,3.358 0 0 0 2.371,-2.543 l -1.427,0.651 z"
       transform="translate(-221.875,-23.977)"
       fill="#f28a61" />
    <path
       id="Path_26954"
       data-name="Path 26954"
       d="m 537.51,124.134 a 5.054,5.054 0 0 0 -1.128,3.358 c 0.07,3.1 1.944,2.712 2.886,2.321 a 5.244,5.244 0 0 0 1.806,-1.925 1.172,1.172 0 0 0 1.355,-0.822 c 0.24,-1.007 -0.5,-1.181 -1.039,-0.738 a 1.914,1.914 0 0 0 -0.419,-1.759 c -0.846,-0.841 -2.645,-1.397 -3.461,-0.435 z"
       transform="translate(-217.77,-11.755)"
       fill="#ffa173" />
    <path
       id="Path_26955"
       data-name="Path 26955"
       d="m 557.467,136.056 c 0,0 0.242,-0.191 0.412,0 0.17,0.191 -0.076,0.768 -0.625,0.672 0,0 0.38,-0.091 0.495,-0.322 0.115,-0.231 -0.005,-0.375 -0.282,-0.35 z"
       transform="translate(-233.583,-21.108)"
       fill="#f28a61" />
    <g
       id="Group_13310"
       data-name="Group 13310"
       transform="translate(320.771,113.979)">
      <g
         id="Group_13309"
         data-name="Group 13309"
         transform="translate(0.01)">
        <path
           id="Path_26956"
           data-name="Path 26956"
           d="m 546.259,132.771 a 0.083,0.083 0 0 0 0.076,-0.017 0.084,0.084 0 0 0 0.01,-0.118 0.85,0.85 0 0 0 -0.963,-0.255 0.084,0.084 0 1 0 0.067,0.154 0.7,0.7 0 0 1 0.767,0.209 0.083,0.083 0 0 0 0.043,0.027 z"
           transform="translate(-545.332,-132.317)"
           fill="#4f2407" />
      </g>
      <path
         id="Path_26957"
         data-name="Path 26957"
         d="m 545.775,134.117 a 0.318,0.318 0 0 1 0.209,0.224 0.2,0.2 0 0 0 -0.255,0.1 c -0.023,0.087 0.055,0.184 0.175,0.216 a 0.3,0.3 0 0 0 0.085,0.01 v 0.005 c -0.069,0.257 -0.276,0.424 -0.462,0.375 a 0.431,0.431 0 0 1 -0.212,-0.555 c 0.067,-0.258 0.274,-0.425 0.46,-0.375 z"
         transform="translate(-545.291,-133.674)"
         fill="#4f2407" />
    </g>
    <g
       id="Group_13312"
       data-name="Group 13312"
       transform="translate(319.074,113.506)">
      <g
         id="Group_13311"
         data-name="Group 13311">
        <path
           id="Path_26958"
           data-name="Path 26958"
           d="m 539.219,130.821 a 0.084,0.084 0 0 0 0.086,-0.135 0.85,0.85 0 0 0 -0.963,-0.255 0.084,0.084 0 1 0 0.067,0.154 0.7,0.7 0 0 1 0.767,0.209 0.084,0.084 0 0 0 0.043,0.027 z"
           transform="translate(-538.291,-130.367)"
           fill="#4f2407" />
      </g>
    </g>
    <path
       id="Path_26959"
       data-name="Path 26959"
       d="m 540.67,134.78 c -0.1,0.136 -0.191,0.268 -0.287,0.386 a 0.985,0.985 0 0 1 -0.308,0.276 c -0.038,0.025 -0.195,0.071 -0.244,0.208 a 0.352,0.352 0 0 0 0.057,0.332 0.691,0.691 0 0 0 0.437,0.279 1.33,1.33 0 0 1 -0.257,-0.379 c -0.023,-0.064 -0.025,-0.117 -0.009,-0.13 a 0.134,0.134 0 0 1 0.035,-0.031 l 0.1,-0.044 a 0.842,0.842 0 0 0 0.365,-0.4 1.123,1.123 0 0 0 0.111,-0.497 z"
       transform="translate(-220.369,-20.204)"
       fill="#ea754b" />
    <path
       id="Path_26960"
       data-name="Path 26960"
       d="m 538.542,141.562 a 4.189,4.189 0 0 0 1.6,0.212 c 0,0 -0.3,0.73 -0.934,0.694 -0.634,-0.036 -0.666,-0.906 -0.666,-0.906 z"
       transform="translate(-219.407,-25.342)"
       fill="#ffffff" />
    <path
       id="Path_26961"
       data-name="Path 26961"
       d="m 538.654,132.53 a 0.317,0.317 0 0 1 0.209,0.224 0.2,0.2 0 0 0 -0.255,0.1 c -0.023,0.087 0.055,0.184 0.175,0.216 a 0.3,0.3 0 0 0 0.084,0.01 v 0.005 c -0.069,0.257 -0.276,0.424 -0.462,0.375 a 0.431,0.431 0 0 1 -0.213,-0.555 c 0.069,-0.257 0.276,-0.424 0.462,-0.375 z"
       transform="translate(-219.125,-18.493)"
       fill="#4f2407" />
    <path
       id="Path_26968"
       data-name="Path 26968"
       d="m 356.7,133.282 c 0,0 -0.359,1.638 1.138,1.648 1.497,0.01 -0.3,-2.556 -0.3,-2.556 l -0.146,0.017 z"
       transform="translate(-81.62,-18.381)"
       fill="#4f2407" />
    <path
       id="Path_26969"
       data-name="Path 26969"
       d="m 279.9,105.628 c 0,0 3.634,6.959 4.084,7.226 0.157,0.5 4.546,3.261 6.16,4.437 1.614,1.176 1.187,5.061 -1.9,3.191 0,0 -6.507,-4.973 -6.824,-5.726 a 50.706,50.706 0 0 1 -3.484,-8.5"
       transform="translate(-21.979,1.881)"
       fill="#ffa173" />
    <path
       id="Path_26970"
       data-name="Path 26970"
       d="m 311.725,152.392 a 6.255,6.255 0 0 1 2.624,-2.47 c 0.534,0.337 1.022,0.656 1.391,0.925 a 1.815,1.815 0 0 1 0.23,0.2 l 0.016,0.016 a 2.18,2.18 0 0 1 0.2,0.244 v 0 L 316.091,153 315,154.509 v 0 a 2.379,2.379 0 0 1 -0.248,-0.057 l -0.022,-0.006 c -0.077,-0.023 -0.156,-0.05 -0.238,-0.082 l -0.048,-0.018 c -0.075,-0.031 -0.153,-0.067 -0.233,-0.106 l -0.064,-0.03 c -0.1,-0.051 -0.2,-0.107 -0.306,-0.171 0.002,-10e-4 -0.935,-0.717 -2.116,-1.647 z"
       transform="translate(-47.575,-31.675)"
       fill="#f28a61" />
    <path
       id="Path_26971"
       data-name="Path 26971"
       d="m 326.535,153.936 c 0,0 1,-2.512 -3.282,-4.22 -4.023,-1.6 -5.4,-2.943 -5.4,-2.943 a 7.64,7.64 0 0 0 -2.469,5.288 c 0,0 9.734,6.251 11.151,1.875 z"
       transform="translate(-50.345,-29.29)"
       fill="#c82951" />
    <path
       id="Path_26972"
       data-name="Path 26972"
       d="m 324.243,170.547 a 46.582,46.582 0 0 1 -8.861,-1.962 c 0,0 9.3,5.971 11.044,2.153 -0.71,-0.038 -1.442,-0.103 -2.183,-0.191 z"
       transform="translate(-50.345,-45.814)"
       fill="#b21945" />
    <g
       id="Group_13320"
       data-name="Group 13320"
       transform="translate(265.037,117.483)">
      <g
         id="Group_13319"
         data-name="Group 13319">
        <path
           id="Path_26973"
           data-name="Path 26973"
           d="m 318.588,147.343 a 6.339,6.339 0 0 1 -0.737,-0.57 7.64,7.64 0 0 0 -2.469,5.288 c 0,0 0.3,0.191 0.794,0.482 a 8.085,8.085 0 0 1 2.412,-5.2 z"
           transform="translate(-315.382,-146.773)"
           fill="#ff9f24" />
      </g>
    </g>
    <path
       id="Path_26974"
       data-name="Path 26974"
       d="m 269.9,91.162 c 0,0 -0.451,-1.1 -0.266,-1.375 0.185,-0.275 0.74,0.605 0.74,0.605 0,0 -0.1,-1.021 0.169,-1.218 0.269,-0.197 0.618,0.951 0.618,0.951 0,0 -0.011,-0.651 0.288,-0.733 0.299,-0.082 0.852,1.735 0.852,1.735 0,0 0.068,-0.653 0.265,-0.8 0.197,-0.147 1.019,1.306 0.756,3.822 l -2.024,-0.379 c 0,0 -2.141,-1.934 -2.124,-2.833 0.02,-0.843 0.726,0.225 0.726,0.225 z"
       transform="translate(-15.341,14.364)"
       fill="#ffa173" />
    <path
       id="Path_26975"
       data-name="Path 26975"
       d="m 280.307,97.3 a 1.64,1.64 0 0 0 -0.061,1.889 c 0,0 -1.177,-0.736 0.061,-1.889 z"
       transform="translate(-23.344,8.189)"
       fill="#f28a61" />
    <path
       id="Path_26976"
       data-name="Path 26976"
       d="m 275.925,101.971 a 1.663,1.663 0 0 0 -1.064,-0.26 0.726,0.726 0 0 1 1.064,0.26 z"
       transform="translate(-19.647,4.95)"
       fill="#f28a61" />
    <path
       id="Path_26977"
       data-name="Path 26977"
       d="m 274.806,91.559 a 3.5,3.5 0 0 1 -0.545,-0.887 4.508,4.508 0 0 1 -0.078,-1.167 2.612,2.612 0 0 0 -0.113,1.155 2.033,2.033 0 0 0 0.736,0.899 z"
       transform="translate(-19.034,14.096)"
       fill="#f28a61" />
    <g
       id="Group_13321"
       data-name="Group 13321"
       transform="translate(254.251,104.133)">
      <path
         id="Path_26978"
         data-name="Path 26978"
         d="m 271.292,92.874 a 4.712,4.712 0 0 1 -0.342,-1.172 0.123,0.123 0 0 0 -0.018,0.018 c -0.185,0.274 0.266,1.375 0.266,1.375 a 2.271,2.271 0 0 0 0.623,0.54 3.122,3.122 0 0 1 -0.529,-0.761 z"
         transform="translate(-270.888,-91.702)"
         fill="#f28a61" />
      <path
         id="Path_26979"
         data-name="Path 26979"
         d="m 271.863,97.02 c 0,0 -0.039,-0.059 -0.1,-0.137 0.037,0.048 0.067,0.095 0.1,0.137 z"
         transform="translate(-271.552,-95.627)"
         fill="#f28a61" />
    </g>
    <path
       id="Path_26980"
       data-name="Path 26980"
       d="m 277.9,91.66 a 4.8,4.8 0 0 1 -0.331,-0.712 5.1,5.1 0 0 1 0.055,-0.722 c -0.26,0.124 -0.253,0.713 -0.253,0.713 0.152,0.413 0.589,0.83 0.529,0.721 z"
       transform="translate(-21.551,13.549)"
       fill="#f28a61" />
    <g
       id="Group_13322"
       data-name="Group 13322"
       transform="translate(280.818,140.361)">
      <path
         id="Path_26981"
         data-name="Path 26981"
         d="m 408.309,397.14 -0.157,-4.166 h -2.786 l 0.217,4.166 z"
         transform="translate(-399.333,-356.168)"
         fill="#ffa9a8" />
      <rect
         id="Rectangle_4587"
         data-name="Rectangle 4587"
         width="9.335"
         height="0.81800002"
         transform="rotate(180,7.684,22.427)"
         fill="#7a341f"
         x="0"
         y="0" />
      <path
         id="Path_26982"
         data-name="Path 26982"
         d="m 407.474,403.533 -0.037,1.734 6,1.947 v 0.989 H 404.1 l -0.4,-4.67 z"
         transform="translate(-398.069,-364.167)"
         fill="#4c1b09" />
      <path
         id="Path_26983"
         data-name="Path 26983"
         d="m 380.479,241.414 5.273,38.275 h 4.754 l -1.051,-38.544 z"
         transform="translate(-380.479,-241.144)"
         fill="#2f328e" />
      <path
         id="Path_26984"
         data-name="Path 26984"
         d="m 395.668,301.6 c 1.355,-0.632 2.968,-0.811 3.959,-1.773 l -0.3,-10.849 c 0,0 -2.207,1.275 -1.423,3.049 0.784,1.774 1.362,4.9 -0.454,5.215 a 7.073,7.073 0 0 0 -4.356,2.617 l 0.879,6.381 v 0 c 0,0 -0.339,-3.695 1.695,-4.64 z"
         transform="translate(-390.04,-277.379)"
         fill="#63b589" />
      <path
         id="Path_26985"
         data-name="Path 26985"
         d="m 430.969,416.121 v 0 l 1.94,0.63 v 0.989 H 429.4 a 3.96,3.96 0 0 1 1.569,-1.619 z"
         transform="translate(-417.541,-373.704)"
         fill="#8e412f" />
      <rect
         id="Rectangle_4588"
         data-name="Rectangle 4588"
         width="1.3200001"
         height="1.3200001"
         transform="rotate(180,3.7995,20.9155)"
         fill="#8e412f"
         x="0"
         y="0" />
    </g>
    <g
       id="Group_13323"
       data-name="Group 13323"
       transform="translate(253.339,106.429)">
      <path
         id="Path_26986"
         data-name="Path 26986"
         d="m 267.276,101.246 c 0,0 -0.062,-0.033 -0.151,-0.074 0.051,0.028 0.102,0.053 0.151,0.074 z"
         transform="translate(-267.125,-101.172)"
         fill="#f28a61" />
    </g>
    <g
       id="Group_13324"
       data-name="Group 13324"
       transform="translate(267.209,140.361)">
      <path
         id="Path_26987"
         data-name="Path 26987"
         d="m 350.709,397.14 0.157,-4.166 h 2.786 l -0.217,4.166 z"
         transform="translate(-344.317,-356.168)"
         fill="#ffa9a8" />
      <rect
         id="Rectangle_4589"
         data-name="Rectangle 4589"
         width="9.335"
         height="0.81800002"
         transform="translate(0,44.036)"
         fill="#7a341f"
         x="0"
         y="0" />
      <path
         id="Path_26988"
         data-name="Path 26988"
         d="m 330.3,403.533 0.037,1.734 -6,1.947 v 0.989 h 9.335 l 0.4,-4.67 z"
         transform="translate(-324.341,-364.167)"
         fill="#4c1b09" />
      <path
         id="Path_26989"
         data-name="Path 26989"
         d="m 356.4,241.414 -5.273,38.275 h -4.754 l 1.051,-38.544 z"
         transform="translate(-341.031,-241.144)"
         fill="#2f328e" />
      <path
         id="Path_26990"
         data-name="Path 26990"
         d="m 349.4,370.738 c -0.609,0.7 -1.206,0.165 -1.228,-1.864 a 3.541,3.541 0 0 0 -1.573,-2.686 l -0.224,8.232 h 4.754 l 0.493,-3.581 a 1.816,1.816 0 0 0 -2.222,-0.101 z"
         transform="translate(-341.031,-335.875)"
         fill="#c82951" />
      <path
         id="Path_26991"
         data-name="Path 26991"
         d="m 363.671,286.425 c -0.528,-0.144 -2.028,-0.342 -2.211,2 -0.223,2.847 -0.39,3.92 -1.585,4.209 -1.195,0.289 -3.114,1.774 -1,3.879 a 13.378,13.378 0 0 1 2.745,4.8 z"
         transform="translate(-349.786,-275.389)"
         fill="#ff9f24" />
      <path
         id="Path_26992"
         data-name="Path 26992"
         d="m 350.3,245.014 -0.061,2.244 16.426,0.2 -0.057,-2.081 v 0 a 10.632,10.632 0 0 0 -2.758,-1.349 c -2.011,-0.743 -2.166,-0.062 -6.158,0 a 42.876,42.876 0 0 0 -7.392,0.986 z"
         transform="translate(-343.96,-243.07)"
         fill="#1d246d" />
      <path
         id="Path_26993"
         data-name="Path 26993"
         d="m 326.281,416.121 v 0 l -1.94,0.63 v 0.989 h 3.509 a 3.96,3.96 0 0 0 -1.569,-1.619 z"
         transform="translate(-324.341,-373.704)"
         fill="#8e412f" />
      <rect
         id="Rectangle_4590"
         data-name="Rectangle 4590"
         width="1.3200001"
         height="1.3200001"
         transform="translate(7.769,40.511)"
         fill="#8e412f"
         x="0"
         y="0" />
    </g>
    <path
       id="Path_26994"
       data-name="Path 26994"
       d="m 420.069,86.91 c 0,0 -1.91,7.614 -2.285,7.979 -0.036,0.522 -3.659,4.231 -4.955,5.752 -1.296,1.521 0.026,5.2 2.589,2.661 0,0 5.167,-6.354 5.3,-7.161 a 50.7,50.7 0 0 0 1.4,-9.079"
       transform="translate(-123.788,16.061)"
       fill="#ffa173" />
    <path
       id="Path_26995"
       data-name="Path 26995"
       d="m 417.651,140.291 a 6.259,6.259 0 0 0 -3.128,-1.789 c -0.44,0.453 -0.84,0.877 -1.136,1.224 a 1.791,1.791 0 0 0 -0.177,0.25 L 413.2,140 a 2.177,2.177 0 0 0 -0.137,0.283 v 0 l 0.486,1.623 1.411,1.213 v 0 a 2.391,2.391 0 0 0 0.228,-0.113 l 0.02,-0.011 c 0.069,-0.04 0.14,-0.086 0.212,-0.135 l 0.042,-0.029 c 0.066,-0.047 0.134,-0.1 0.2,-0.157 l 0.055,-0.044 c 0.085,-0.072 0.17,-0.151 0.258,-0.237 0,-0.006 0.745,-0.922 1.676,-2.102 z"
       transform="translate(-124.345,-23.024)"
       fill="#f28a61" />
    <path
       id="Path_26996"
       data-name="Path 26996"
       d="m 386.48,145.135 c 0,0 -1.562,-2.208 2.206,-4.869 3.538,-2.5 4.567,-4.123 4.567,-4.123 a 7.639,7.639 0 0 1 3.635,4.565 c 0,0 -8.009,8.352 -10.408,4.427 z"
       transform="translate(-103.964,-21.237)"
       fill="#c82951" />
    <path
       id="Path_26997"
       data-name="Path 26997"
       d="m 393.133,158.271 -1.995,1.965 c 3.051,1.487 9.522,-5.259 9.522,-5.259 a 29.183,29.183 0 0 1 -7.527,3.294 z"
       transform="translate(-107.736,-35.505)"
       fill="#b21945" />
    <g
       id="Group_13326"
       data-name="Group 13326"
       transform="translate(288.705,114.907)">
      <g
         id="Group_13325"
         data-name="Group 13325">
        <path
           id="Path_26998"
           data-name="Path 26998"
           d="m 413.016,136.87 a 6.345,6.345 0 0 0 0.584,-0.726 7.639,7.639 0 0 1 3.635,4.565 c 0,0 -0.244,0.255 -0.66,0.654 a 8.081,8.081 0 0 0 -3.559,-4.493 z"
           transform="translate(-413.016,-136.144)"
           fill="#ff9f24" />
      </g>
    </g>
    <path
       id="Path_26999"
       data-name="Path 26999"
       d="m 362.131,174.39 -5.068,-24.3 -4.944,0.328 -2.045,0.518 -2.109,-0.027 -4.884,0.835 0.741,24.809 z"
       transform="translate(-71.329,-31.805)"
       fill="#ff9f24" />
    <g
       id="Group_13329"
       data-name="Group 13329"
       transform="translate(276.176,114.663)">
      <g
         id="Group_13328"
         data-name="Group 13328">
        <g
           id="Group_13327"
           data-name="Group 13327">
          <path
             id="Path_27000"
             data-name="Path 27000"
             d="m 364.261,154.937 v 0 a 2.606,2.606 0 0 0 2.25,-3.094 l -0.1,-0.524 -0.463,0.031 -2.045,0.518 -2.11,-0.027 -0.46,0.079 0.021,0.534 a 2.606,2.606 0 0 0 2.907,2.483 z"
             transform="translate(-361.33,-147.397)"
             fill="#c82951" />
          <path
             id="Path_27001"
             data-name="Path 27001"
             d="m 366.747,135.139 -1.319,1.266 -1.578,-0.924 0.181,4.534 a 1.816,1.816 0 0 0 2.028,1.731 v 0 a 1.816,1.816 0 0 0 1.568,-2.157 z"
             transform="translate(-363.24,-135.139)"
             fill="#ffa173" />
          <path
             id="Path_27002"
             data-name="Path 27002"
             d="m 364.874,140.936 a 1.749,1.749 0 0 1 -0.8,0.205 l 0.04,0.991 c 0,0 0.253,0.821 1.619,0.868 1.366,0.047 1.585,0.408 1.619,0.794 a 0.441,0.441 0 0 0 0.475,0.34 1.818,1.818 0 0 0 -0.03,-0.239 l -0.509,-2.568 -0.531,-0.389 c 0,0 -1.571,-0.261 -1.883,-0.002 z"
             transform="translate(-363.41,-139.444)"
             fill="#f28a61" />
          <path
             id="Path_27003"
             data-name="Path 27003"
             d="m 368.715,139.59 -0.882,-4.451 -0.293,0.282 0.7,3.545 a 1.816,1.816 0 0 1 -1.568,2.157 v 0 a 1.809,1.809 0 0 1 -1.389,-0.42 1.816,1.816 0 0 0 1.862,1.044 v 0 a 1.816,1.816 0 0 0 1.57,-2.157 z"
             transform="translate(-364.326,-135.139)"
             fill="#f28a61" />
        </g>
      </g>
    </g>
    <g
       id="Group_13333"
       data-name="Group 13333"
       transform="translate(273.897,110.657)">
      <path
         id="Path_27004"
         data-name="Path 27004"
         d="m 377.913,130.882 c 0,0 0.732,1.509 -0.722,1.869 -1.454,0.36 -0.3,-2.556 -0.3,-2.556 l 0.146,-0.017 z"
         transform="translate(-370.512,-127.374)"
         fill="#4f2407" />
      <path
         id="Path_27005"
         data-name="Path 27005"
         d="m 358.845,120.62 v 0 c 0,0 -0.239,-2.307 -3.074,-1.972 -2.835,0.335 -2.529,2.635 -2.529,2.635 -0.567,-0.577 -1.451,-0.463 -1.291,0.733 a 1.337,1.337 0 0 0 1.43,1.114 0.067,0.067 0 0 1 0.062,0.04 5.92,5.92 0 0 0 1.848,2.4 4.208,4.208 0 0 0 0.8,0.335 1.375,1.375 0 0 0 1.073,-0.127 4.2,4.2 0 0 0 0.7,-0.511 5.923,5.923 0 0 0 1.236,-2.768 0.067,0.067 0 0 1 0.051,-0.053 1.337,1.337 0 0 0 1.13,-1.417 c -0.133,-1.198 -1.019,-1.102 -1.436,-0.409 z"
         transform="translate(-351.933,-118.615)"
         fill="#ffa173" />
      <path
         id="Path_27006"
         data-name="Path 27006"
         d="m 368.811,133.986 a 2.156,2.156 0 0 1 -0.252,0.915 c -0.247,0.444 0.361,0.467 0.737,0.314"
         transform="translate(-364.485,-130.26)"
         fill="none"
         stroke="#e56e45"
         stroke-miterlimit="10"
         stroke-width="1" />
      <path
         id="Path_27007"
         data-name="Path 27007"
         d="m 367.8,141.684 a 0.761,0.761 0 0 0 1.327,-0.157"
         transform="translate(-363.953,-135.973)"
         fill="none"
         stroke="#e56e45"
         stroke-linecap="round"
         stroke-miterlimit="10"
         stroke-width="1" />
      <g
         id="Group_13332"
         data-name="Group 13332"
         transform="translate(2.534,2.387)">
        <g
           id="Group_13330"
           data-name="Group 13330"
           transform="translate(2.347)">
          <path
             id="Path_27008"
             data-name="Path 27008"
             d="m 372.156,128.812 a 0.091,0.091 0 0 1 -0.052,-0.165 1.125,1.125 0 0 1 0.864,-0.155 0.091,0.091 0 1 1 -0.043,0.176 0.951,0.951 0 0 0 -0.716,0.127 0.089,0.089 0 0 1 -0.053,0.017 z"
             transform="translate(-372.066,-128.462)"
             fill="#4f2407" />
        </g>
        <g
           id="Group_13331"
           data-name="Group 13331"
           transform="translate(0,0.272)">
          <path
             id="Path_27009"
             data-name="Path 27009"
             d="m 362.477,129.871 a 0.091,0.091 0 0 1 -0.042,-0.172 1.13,1.13 0 0 1 0.876,-0.051 0.091,0.091 0 0 1 -0.067,0.169 0.962,0.962 0 0 0 -0.726,0.043 0.087,0.087 0 0 1 -0.041,0.011 z"
             transform="translate(-362.386,-129.583)"
             fill="#4f2407" />
        </g>
        <path
           id="Path_27010"
           data-name="Path 27010"
           d="m 363.75,132.066 c 0.038,0.319 -0.2,0.024 -0.445,0.053 -0.245,0.029 -0.408,0.372 -0.445,0.053 a 0.528,0.528 0 0 1 0.377,-0.631 c 0.245,-0.03 0.475,0.205 0.513,0.525 z"
           transform="translate(-362.741,-130.792)"
           fill="#4f2407" />
        <path
           id="Path_27011"
           data-name="Path 27011"
           d="m 373.806,131 c 0.035,0.294 -0.184,0.022 -0.41,0.048 -0.226,0.026 -0.376,0.343 -0.41,0.048 a 0.487,0.487 0 0 1 0.347,-0.581 c 0.227,-0.024 0.439,0.193 0.473,0.485 z"
           transform="translate(-370.413,-130.018)"
           fill="#4f2407" />
      </g>
    </g>
    <path
       id="Path_27012"
       data-name="Path 27012"
       d="m 382.781,127.4 a 0.258,0.258 0 0 1 0.367,-0.127 c 0.239,0.1 0.281,0.956 -0.379,1.139 a 2.851,2.851 0 0 0 0.012,-1.012 z"
       transform="translate(-101.396,-14.497)"
       fill="#f28a61" />
    <path
       id="Path_27013"
       data-name="Path 27013"
       d="m 353.788,130.821 a 0.258,0.258 0 0 0 -0.386,-0.038 c -0.21,0.15 -0.051,1 0.634,1.019 a 2.859,2.859 0 0 1 -0.248,-0.981 z"
       transform="translate(-79.083,-17.124)"
       fill="#f28a61" />
    <path
       id="Path_27014"
       data-name="Path 27014"
       d="m 446.1,70.117 c 0,0 0.182,-1.175 -0.062,-1.4 -0.244,-0.225 -0.579,0.761 -0.579,0.761 0,0 -0.141,-1.016 -0.449,-1.145 -0.308,-0.129 -0.379,1.069 -0.379,1.069 0,0 -0.141,-0.636 -0.451,-0.646 -0.31,-0.01 -0.423,1.886 -0.423,1.886 0,0 -0.218,-0.619 -0.444,-0.714 -0.226,-0.095 -0.687,1.508 0.156,3.893 l 1.88,-0.84 c 0,0 1.631,-2.381 1.4,-3.25 -0.213,-0.818 -0.649,0.386 -0.649,0.386 z"
       transform="translate(-147.009,30.142)"
       fill="#ffa173" />
    <path
       id="Path_27015"
       data-name="Path 27015"
       d="m 446.172,77.891 a 1.64,1.64 0 0 1 0.5,1.822 c 0,0 0.972,-0.992 -0.5,-1.822 z"
       transform="translate(-149.429,22.894)"
       fill="#f28a61" />
    <path
       id="Path_27016"
       data-name="Path 27016"
       d="m 450.294,81.248 a 1.663,1.663 0 0 1 0.974,-0.5 0.726,0.726 0 0 0 -0.974,0.5 z"
       transform="translate(-152.552,20.769)"
       fill="#f28a61" />
    <path
       id="Path_27017"
       data-name="Path 27017"
       d="m 451.109,70.705 a 3.5,3.5 0 0 0 0.323,-0.99 4.505,4.505 0 0 0 -0.2,-1.152 2.611,2.611 0 0 1 0.379,1.1 2.032,2.032 0 0 1 -0.502,1.042 z"
       transform="translate(-153.169,29.961)"
       fill="#f28a61" />
    <g
       id="Group_13334"
       data-name="Group 13334"
       transform="translate(298.606,98.847)">
      <path
         id="Path_27018"
         data-name="Path 27018"
         d="m 454.2,71.115 a 4.707,4.707 0 0 0 0.059,-1.219 0.118,0.118 0 0 1 0.022,0.013 c 0.244,0.223 0.062,1.4 0.062,1.4 a 2.27,2.27 0 0 1 -0.48,0.67 3.125,3.125 0 0 0 0.337,-0.864 z"
         transform="translate(-453.859,-69.896)"
         fill="#f28a61" />
      <path
         id="Path_27019"
         data-name="Path 27019"
         d="m 455.839,75.234 c 0,0 0.024,-0.066 0.064,-0.156 -0.02,0.054 -0.041,0.107 -0.064,0.156 z"
         transform="translate(-455.359,-73.822)"
         fill="#f28a61" />
    </g>
    <path
       id="Path_27020"
       data-name="Path 27020"
       d="m 448.145,71.615 a 4.794,4.794 0 0 0 0.156,-0.769 5.074,5.074 0 0 0 -0.222,-0.689 c 0.282,0.06 0.413,0.635 0.413,0.635 a 1.525,1.525 0 0 1 -0.347,0.823 z"
       transform="translate(-150.873,28.754)"
       fill="#f28a61" />
    <path
       id="Path_27021"
       data-name="Path 27021"
       d="m 355.19,260.131 a 3.875,3.875 0 0 1 -3.44,4.177"
       transform="translate(-77.897,-115.168)"
       fill="none"
       stroke="#6d6ebf"
       stroke-miterlimit="10"
       stroke-width="1" />
    <line
       id="Line_11"
       data-name="Line 11"
       x1="3.8699999"
       y2="29.131001"
       transform="translate(276.948,147.315)"
       fill="none"
       stroke="#6d6ebf"
       stroke-miterlimit="10"
       stroke-width="1"
       y1="0"
       x2="0" />
    <path
       id="Path_27022"
       data-name="Path 27022"
       d="m 401.778,256.992 a 3.655,3.655 0 0 0 3.435,3.9"
       transform="translate(-115.793,-112.79)"
       fill="none"
       stroke="#6d6ebf"
       stroke-miterlimit="10"
       stroke-width="1" />
    <line
       id="Line_12"
       data-name="Line 12"
       x2="3.8699999"
       y2="29.131001"
       transform="translate(282.577,147.315)"
       fill="none"
       stroke="#6d6ebf"
       stroke-miterlimit="10"
       stroke-width="1"
       x1="0"
       y1="0" />
    <line
       id="Line_13"
       data-name="Line 13"
       y1="1.387"
       x2="14.7"
       transform="translate(274.347,143.854)"
       fill="none"
       stroke="#6d6ebf"
       stroke-miterlimit="10"
       stroke-width="1"
       x1="0"
       y2="0" />
    <path
       id="Path_27023"
       data-name="Path 27023"
       d="m 359.249,108.684 c 0,0 0.25,-1.572 -1.19,-1.635 a 4.413,4.413 0 0 0 -5.418,0.641 c -1.386,0.4 -0.776,1.868 -0.776,1.868 -0.631,0.854 0.4,1.934 0.4,1.934 a 1.189,1.189 0 0 1 0.77,0.333 c 1.032,0.117 1.532,-1.117 1.532,-1.117 1.08,-0.107 1.076,-0.849 1.076,-0.849 0,0 0.169,0.723 1.244,0.575 0,0 0.774,1.083 1.75,0.728 a 1.189,1.189 0 0 1 0.672,-0.5 c 0,0 0.753,-1.295 -0.06,-1.978 z"
       transform="translate(-77.829,1.501)"
       fill="#4f2407" />
    <path
       id="Path_27030"
       data-name="Path 27030"
       d="m 541.665,114.855 c 0,0 -2.873,0.789 -4.318,-1.068 -1.445,-1.857 0.091,-4.075 1.609,-3.86 a 1.781,1.781 0 0 1 1.658,1.471 c 0,0 2.861,0.558 1.051,3.457 z"
       transform="translate(-218.064,-1.365)"
       fill="#4f2407" />
    <path
       id="Path_27031"
       data-name="Path 27031"
       d="m 553.147,127.288 c 0,0 -0.1,1.209 0.943,1.306 l 0.456,-1.017 -0.067,-0.526 -0.862,-0.433 c 0,0 -0.2,0 -0.233,0.1 -0.033,0.1 -0.237,0.57 -0.237,0.57 z"
       transform="translate(-230.47,-14.02)"
       fill="#4f2407" />
    <path
       id="Path_27032"
       data-name="Path 27032"
       d="m 467.472,59.9 c 0,0 2.349,-2.94 4.423,-1.795 2.074,1.145 -0.743,0.619 -0.866,1.486 -0.123,0.867 2.785,-1.207 3.636,0.309 0.851,1.516 0.166,2.607 -1.906,1.876 -2.072,-0.731 -0.524,0.946 -0.957,1.593 -0.433,0.647 -1.331,0.252 -1.454,-1.593 -0.123,-1.845 -3.448,-1.262 -2.876,-1.876 z"
       transform="translate(-165.516,38.081)"
       fill="#ff9f24" />
    <path
       id="Path_27033"
       data-name="Path 27033"
       d="m 619.087,130.537 c -1.82,0.534 -0.2,3.026 -2.637,4.317 -2.437,1.291 -1.66,2.42 -1.658,2.422 a 22.367,22.367 0 0 0 3.508,-2.776 24.476,24.476 0 0 0 1.968,-3.654 1.185,1.185 0 0 0 -1.181,-0.309 z"
       transform="translate(-277.082,-16.952)"
       fill="#ca2851" />
    <path
       id="Path_27034"
       data-name="Path 27034"
       d="m 479.5,109.476 a 23.435,23.435 0 0 1 -1.157,-3.663 v 0 a 1.715,1.715 0 0 0 -0.4,2.186 c 0.681,1.382 0.928,1.65 0.66,2.5 -0.245,0.771 1.022,1.777 2.748,1.309 a 11.258,11.258 0 0 1 -1.851,-2.332 z"
       transform="translate(-173.327,1.741)"
       fill="#4ca573" />
    <path
       id="Path_27035"
       data-name="Path 27035"
       d="M 543.435,185.117 A 4.047,4.047 0 0 1 540,188.792 c -3.214,0.454 -2.987,3.3 -0.357,4.786 2.63,1.486 1.926,4.25 -1.188,4.333 -2.775,0.073 -6.2,2.358 -5.146,4.19 l 9.585,1.134 z"
       transform="translate(-215.293,-58.338)"
       fill="#ff9f24" />
    <path
       id="Path_27036"
       data-name="Path 27036"
       d="m 505.9,191.478 a 1.2,1.2 0 0 1 0.6,-1.733 c 0.7,-0.371 2.682,-1.238 1.112,-2.393 -1.57,-1.155 -1.553,-3.646 -1.553,-3.646 v 0 l -1.975,9.47 c 1.498,0.219 2.183,-1.243 1.816,-1.698 z"
       transform="translate(-193.302,-57.27)"
       fill="#ca2851" />
    <path
       id="Path_27037"
       data-name="Path 27037"
       d="m 564.475,291.5 c 0,0 -2.5,1.179 -1.692,2.85 0.808,1.671 1.362,3.033 0.5,3.745 -0.762,0.626 -0.135,1.92 1.436,2.161 z"
       transform="translate(-237.65,-138.932)"
       fill="#6067e8" />
    <path
       id="Path_27038"
       data-name="Path 27038"
       d="m 502.044,287.8 a 4.184,4.184 0 0 0 -1.678,-4.293 l -0.271,9.934 a 9.714,9.714 0 0 0 2.037,-0.931 c 1.545,-0.986 -0.645,-1.835 -0.088,-4.71 z"
       transform="translate(-190.281,-132.875)"
       fill="#ca2851" />
    <path
       id="Path_27039"
       data-name="Path 27039"
       d="m 424.538,115.759 v 0 c 0,0 1.728,0.407 2.223,-0.948 0.495,-1.355 0.371,-2.181 1.269,-2.387 0.629,-0.144 0.285,-1.234 -0.222,-1.981 a 12.076,12.076 0 0 1 -0.771,2.275 17,17 0 0 1 -2.499,3.041 z"
       transform="translate(-133.04,-1.766)"
       fill="#6067e8" />
    <path
       id="Path_27040"
       data-name="Path 27040"
       d="m 447.334,91.21 c 0.307,0.557 -0.044,0.572 -0.771,1.687 -0.538,0.824 0.288,1.471 0.753,1.751 0.186,-1.268 0.375,-2.793 0.55,-4.541 a 0.719,0.719 0 0 0 -0.532,1.103 z"
       transform="translate(-149.592,13.64)"
       fill="#ca2851" />
    <path
       id="Path_27041"
       data-name="Path 27041"
       d="m 290.035,131.1 a 2.354,2.354 0 0 0 -1.392,0.386 c -0.392,0.31 -1.423,-0.021 -1.692,-1.052 a 1.137,1.137 0 0 0 -1.073,-0.808 21.771,21.771 0 0 0 1.56,3.31 5.513,5.513 0 0 0 1.049,1.079 3.9,3.9 0 0 0 2.384,-0.595 2.428,2.428 0 0 1 2.522,0.161 v 0 a 23.828,23.828 0 0 1 -3.358,-2.481 z"
       transform="translate(-27.993,-16.3)"
       fill="#4ca573" />
    <path
       id="Path_27042"
       data-name="Path 27042"
       d="m 289.6,113.957 c -0.582,-1.055 -1.189,-2.189 -1.636,-3.031 -0.247,0.2 -0.494,0.6 0.049,1.235 0.846,0.99 -0.248,1.609 0.681,1.939 a 1.063,1.063 0 0 0 0.906,-0.143 z"
       transform="translate(-29.363,-2.133)"
       fill="#ff9f24" />
    <path
       id="Path_27043"
       data-name="Path 27043"
       d="m 344.181,193.735 c 3.267,-0.406 5.171,-4.377 3.79,-4.73 -1.455,-0.371 -2.908,-1.516 -1.917,-3.012 0.991,-1.496 0.9,-2.62 -0.31,-2.764 a 2.98,2.98 0 0 1 -1.922,-1.534 v 0 z"
       transform="translate(-71.89,-55.746)"
       fill="#4ca573" />
    <path
       id="Path_27044"
       data-name="Path 27044"
       d="m 392.858,202.608 c 0.663,1.792 1.07,3.283 -1.253,3.6 -2.323,0.317 -0.9,2.364 -1.184,4.056 -0.284,1.692 -2.686,2.046 -2.686,2.047 l 8.225,-0.973 -2.6,-12.475 c -1.147,0.737 -1.024,2.337 -0.502,3.745 z"
       transform="translate(-105.158,-68.753)"
       fill="#6067e8" />
    <g
       id="Group_13341"
       data-name="Group 13341"
       transform="translate(289.212,167.754)">
      <path
         id="Path_27045"
         data-name="Path 27045"
         d="m 416.435,354.145 c 0,0 -1.957,0.5 -1.121,1.94 0.836,1.44 1.439,3.3 0.374,4 -0.7,0.464 -0.094,1.415 0.961,1.9 z"
         transform="translate(-415.107,-354.145)"
         fill="#ff9f24" />
    </g>
    <path
       id="Path_27046"
       data-name="Path 27046"
       d="m 188.623,311.672 c 1.261,-0.937 2.978,-1.643 3.507,-2.064 0.83,-0.66 0.779,-2.269 -0.67,-3.177 -1.449,-0.908 -0.737,-2.641 -0.2,-5.158 0.431,-2.007 -1.48,-2.833 -2.272,-3.085 z"
       transform="translate(45.686,-143.999)"
       fill="#63b589" />
    <path
       id="Path_27047"
       data-name="Path 27047"
       d="m 192.946,205.392 c 2.723,-1.444 1.32,-3.218 0.124,-4.085 -1.196,-0.867 0.743,-2.311 0.536,-4.085 a 4.74,4.74 0 0 0 -1.2,-2.394 l -2.645,12.672 a 18.038,18.038 0 0 1 3.185,-2.108 z"
       transform="translate(44.823,-65.695)"
       fill="#fda022" />
    <path
       id="Path_27048"
       data-name="Path 27048"
       d="m 219.129,250.172 9.845,1.165 0.135,-4.507 c -2.355,-0.991 -3.688,0.354 -3.743,1.158 -0.062,0.908 -0.516,1.444 -3.429,1.155 a 3.11,3.11 0 0 0 -2.808,1.029 z"
       transform="translate(22.575,-104.826)"
       fill="#6067e8" />
    <path
       id="Path_27049"
       data-name="Path 27049"
       d="m 220.55,190.424 c 0,0 1.825,-3.342 3.444,-2.228 1.619,1.114 4.033,-1.919 3.569,-0.031 -0.464,1.888 -1.485,5.2 0.031,4.611 1.516,-0.589 -0.5,3.466 -1.857,4.085 -1.357,0.619 0.036,-3.342 -0.6,-3.992 -0.636,-0.65 -3.09,0.031 -2.343,-2.073 0.747,-2.104 -3.686,1.794 -2.244,-0.372 z"
       transform="translate(21.718,-60.167)"
       fill="#c82951" />
    <path
       id="Path_27050"
       data-name="Path 27050"
       d="m 295.781,199.915 c -1.269,-0.444 -1.207,1.156 -2.94,0.21 -1.733,-0.946 -2.51,0 -2.51,0 a 24.247,24.247 0 0 0 4.549,1.1 16.293,16.293 0 0 0 2.615,-0.4 7.687,7.687 0 0 0 -1.714,-0.91 z"
       transform="translate(-31.366,-69.39)"
       fill="#6067e8" />
    <path
       id="Path_27051"
       data-name="Path 27051"
       d="m 319.983,192.087 c 0.544,0.221 0.978,-0.338 1.029,-0.877 -1.34,0.159 -3.221,0.372 -4.576,0.485 a 0.878,0.878 0 0 0 1.088,0.59 c 1.314,-0.185 1.748,-0.485 2.459,-0.198 z"
       transform="translate(-51.144,-62.954)"
       fill="#63b589" />
    <path
       id="Path_27052"
       data-name="Path 27052"
       d="m 164,132.945 c -0.9,-0.124 -1.3,-0.619 -1.733,-2.1 a 1.5,1.5 0 0 0 -0.911,-1 13.083,13.083 0 0 0 0.476,2 31.123,31.123 0 0 0 3.226,4.539 c 0.252,-1.268 -0.29,-3.333 -1.058,-3.439 z"
       transform="translate(66.345,-16.458)"
       fill="#fda022" />
    <path
       id="Path_27053"
       data-name="Path 27053"
       d="m 165.584,112.185 a 2.645,2.645 0 0 0 1.216,0.54 c -0.425,-1.323 -1.081,-3.81 -1.483,-5.368 -0.465,0.512 -1.024,1.383 -0.286,2.059 1.099,1.007 -0.159,2.133 0.553,2.769 z"
       transform="translate(63.83,0.571)"
       fill="#6067e8" />
    <g
       id="trophy-icon"
       transform="translate(341.862,95.372)">
      <path
         id="Path_27054"
         data-name="Path 27054"
         d="M 0.309,1.858 H 1.96 q 0,-0.4 0.006,-0.819 V 0 h 7.252 v 1.859 h 1.71 a 0.305,0.305 0 0 1 0.3,0.291 7.7,7.7 0 0 1 -0.04,1.378 A 3.371,3.371 0 0 1 10.81,4.76 2.159,2.159 0 0 1 9.937,5.613 3.164,3.164 0 0 1 8.559,5.95 5.856,5.856 0 0 1 7.3,7.206 C 6.688,7.673 6.228,8.025 6.586,9.106 H 7.12 a 0.777,0.777 0 0 1 0.775,0.775 v 0.312 h 0.076 a 0.763,0.763 0 0 1 0.54,0.221 v 0 a 0.761,0.761 0 0 1 0.224,0.54 v 0.519 A 0.176,0.176 0 0 1 8.559,11.649 H 2.626 A 0.176,0.176 0 0 1 2.45,11.473 v -0.519 a 0.76,0.76 0 0 1 0.224,-0.54 v 0 A 0.76,0.76 0 0 1 3.213,10.19 H 3.289 V 9.879 A 0.769,0.769 0 0 1 3.517,9.333 v 0 A 0.774,0.774 0 0 1 4.063,9.106 h 0.6 C 4.982,8.089 4.563,7.759 3.986,7.306 A 4.41,4.41 0 0 1 2.7,5.95 3.16,3.16 0 0 1 1.28,5.607 2.129,2.129 0 0 1 0.414,4.754 3.378,3.378 0 0 1 0.041,3.528 7.745,7.745 0 0 1 0,2.172 V 2.164 A 0.305,0.305 0 0 1 0.31,1.858 Z m 8.875,1.117 a 12.065,12.065 0 0 1 -0.2,1.785 1.5,1.5 0 0 0 0.5,-0.188 1.04,1.04 0 0 0 0.366,-0.386 1.785,1.785 0 0 0 0.191,-0.595 4.5,4.5 0 0 0 0.05,-0.62 h -0.9 z m -7.2,0 H 1.181 A 4.936,4.936 0 0 0 1.226,3.597 1.826,1.826 0 0 0 1.404,4.192 1,1 0 0 0 1.758,4.577 1.445,1.445 0 0 0 2.226,4.76 9.123,9.123 0 0 1 1.986,2.975 Z"
         fill="#f39d00" />
      <path
         id="Path_27055"
         data-name="Path 27055"
         d="M 4.762,21.82 H 3.089 A 4.613,4.613 0 0 0 3.465,24.26 2.193,2.193 0 0 0 5.509,25.3 2.767,2.767 0 0 1 5.164,24.754 1.5,1.5 0 0 1 3.921,23.993 3.321,3.321 0 0 1 3.657,22.449 0.122,0.122 0 0 1 3.779,22.327 h 0.983 z m 7.216,0.506 h 1.073 a 0.122,0.122 0 0 1 0.122,0.121 3.193,3.193 0 0 1 -0.282,1.547 1.556,1.556 0 0 1 -1.259,0.758 2.517,2.517 0 0 1 -0.366,0.547 2.209,2.209 0 0 0 2.06,-1.036 4.622,4.622 0 0 0 0.381,-2.441 h -1.729 z"
         transform="translate(-2.78,-19.656)"
         fill="#f9c809" />
      <path
         id="Path_27056"
         data-name="Path 27056"
         d="m 30.252,102.742 h 0.076 a 0.763,0.763 0 0 1 0.54,0.222 v 0 a 0.761,0.761 0 0 1 0.224,0.54 v 1.054 a 0.176,0.176 0 0 1 -0.176,0.176 h -5.931 a 0.176,0.176 0 0 1 -0.176,-0.176 v -1.051 a 0.76,0.76 0 0 1 0.224,-0.543 v 0 a 0.76,0.76 0 0 1 0.539,-0.224 h 4.678 z"
         transform="translate(-22.359,-92.552)"
         fill="#222222" />
      <path
         id="Path_27057"
         data-name="Path 27057"
         d="m 35.354,107.991 h -3.463 a 0.418,0.418 0 0 0 -0.3,0.124 v 0 a 0.422,0.422 0 0 0 -0.124,0.3 v 0.524 h 4.966 v -0.524 a 0.422,0.422 0 0 0 -0.125,-0.3 0.427,0.427 0 0 0 -0.3,-0.125 z"
         transform="translate(-28.359,-97.281)"
         fill="#ead79e" />
      <path
         id="Path_27058"
         data-name="Path 27058"
         d="m 25.324,11.6 h 0.595 V 9.836 c -2.2,-0.781 -2.406,-3.471 -2.93,-7.2 H 22.53 v 2.659 a 7.094,7.094 0 0 0 0.443,2.33 3.787,3.787 0 0 0 0.832,1.269 6.808,6.808 0 0 0 0.665,0.573 c 0.696,0.547 1.199,0.943 0.854,2.133 z"
         transform="translate(-20.305,-2.378)"
         fill="#f8b705" />
      <path
         id="Path_27059"
         data-name="Path 27059"
         d="m 30.09,11.6 h 0.624 c -0.385,-1.26 0.167,-1.686 0.892,-2.236 0.8,-0.609 1.835,-1.4 1.835,-4 V 2.64 H 27.16 c 0.339,2.408 0.545,4.38 1.241,5.688 a 3.881,3.881 0 0 0 0.925,1.1 2.906,2.906 0 0 0 0.542,0.314 1.894,1.894 0 0 0 0.219,0.073 V 9.83 h 0.007 v 1.77 z"
         transform="translate(-24.476,-2.378)"
         fill="#fac809" />
      <path
         id="Path_27060"
         data-name="Path 27060"
         d="m 44.322,19.1 0.278,0.681 0.733,0.056 a 0.188,0.188 0 0 1 0.1,0.338 l -0.554,0.47 0.175,0.712 a 0.188,0.188 0 0 1 -0.14,0.227 0.186,0.186 0 0 1 -0.148,-0.026 l -0.617,-0.389 -0.624,0.386 a 0.188,0.188 0 0 1 -0.26,-0.061 0.183,0.183 0 0 1 -0.023,-0.143 l 0.174,-0.712 -0.561,-0.476 a 0.189,0.189 0 0 1 0.108,-0.332 l 0.733,-0.05 0.279,-0.678 a 0.189,0.189 0 0 1 0.349,0 z"
         transform="translate(-38.554,-17.109)"
         fill="#f39d00" />
      <path
         id="Path_27061"
         data-name="Path 27061"
         d="m 45.861,20.86 0.322,0.785 0.849,0.064 -0.65,0.55 0.2,0.825 -0.723,-0.447 -0.723,0.447 0.2,-0.825 -0.65,-0.55 0.848,-0.064 0.323,-0.785 z"
         transform="translate(-40.268,-18.791)"
         fill="#ffffff" />
      <path
         id="Path_27062"
         data-name="Path 27062"
         d="m 71.071,15.244 -0.007,0.01 a 0.376,0.376 0 0 0 -0.513,0.082 l -0.01,-0.008 a 0.349,0.349 0 0 0 0.061,-0.273 0.354,0.354 0 0 0 -0.143,-0.24 2.657,2.657 0 0 0 0.28,0.053 0.355,0.355 0 0 0 0.24,-0.144 l 0.01,0.007 a 0.378,0.378 0 0 0 0.082,0.513 z m 0.759,-1.271 -0.007,0.01 A 0.375,0.375 0 0 0 71.31,14.064 L 71.3,14.057 a 0.376,0.376 0 0 0 -0.082,-0.513 l 0.007,-0.01 a 0.377,0.377 0 0 0 0.514,-0.082 l 0.009,0.008 a 0.376,0.376 0 0 0 0.081,0.513 z m 0.006,-1.345 -0.013,0.018 a 0.688,0.688 0 0 0 -0.938,0.15 l -0.018,-0.013 a 0.685,0.685 0 0 0 -0.15,-0.935 L 70.73,11.83 a 0.688,0.688 0 0 0 0.938,-0.15 l 0.018,0.013 a 0.685,0.685 0 0 0 0.15,0.935 z"
         transform="translate(-63.482,-10.522)"
         fill="#ffffff"
         fill-rule="evenodd" />
    </g>
    <g
       id="trophy-icon-2"
       data-name="trophy-icon"
       transform="translate(248.861,93.56)">
      <path
         id="Path_27054-2"
         data-name="Path 27054"
         d="M 0.314,1.887 H 1.99 q 0,-0.4 0.006,-0.832 V 0 h 7.362 v 1.888 h 1.736 a 0.31,0.31 0 0 1 0.309,0.295 7.819,7.819 0 0 1 -0.04,1.4 3.423,3.423 0 0 1 -0.388,1.25 2.192,2.192 0 0 1 -0.886,0.866 3.212,3.212 0 0 1 -1.4,0.342 5.945,5.945 0 0 1 -1.281,1.275 C 6.787,7.79 6.32,8.148 6.683,9.242 h 0.543 a 0.789,0.789 0 0 1 0.787,0.787 v 0.317 H 8.091 A 0.774,0.774 0 0 1 8.64,10.57 v 0 a 0.772,0.772 0 0 1 0.228,0.549 v 0.527 A 0.178,0.178 0 0 1 8.69,11.824 H 2.667 A 0.178,0.178 0 0 1 2.489,11.646 V 11.119 A 0.771,0.771 0 0 1 2.717,10.57 v 0 A 0.771,0.771 0 0 1 3.265,10.342 H 3.343 V 10.028 A 0.78,0.78 0 0 1 3.575,9.473 v 0 A 0.786,0.786 0 0 1 4.13,9.242 H 4.74 C 5.064,8.209 4.64,7.875 4.052,7.413 A 4.477,4.477 0 0 1 2.743,6.04 3.208,3.208 0 0 1 1.3,5.692 2.161,2.161 0 0 1 0.421,4.826 3.43,3.43 0 0 1 0.042,3.582 7.863,7.863 0 0 1 0,2.2 v 0 A 0.31,0.31 0 0 1 0.311,1.89 Z m 9.01,1.133 a 12.248,12.248 0 0 1 -0.2,1.812 1.527,1.527 0 0 0 0.5,-0.191 1.056,1.056 0 0 0 0.376,-0.392 1.812,1.812 0 0 0 0.194,-0.6 4.568,4.568 0 0 0 0.05,-0.629 z m -7.308,0 H 1.2 A 5.011,5.011 0 0 0 1.245,3.651 1.853,1.853 0 0 0 1.426,4.251 1.02,1.02 0 0 0 1.785,4.642 1.467,1.467 0 0 0 2.26,4.828 9.262,9.262 0 0 1 2.016,3.02 Z"
         fill="#f39d00" />
      <path
         id="Path_27055-2"
         data-name="Path 27055"
         d="m 4.787,21.82 h -1.7 A 4.683,4.683 0 0 0 3.47,24.3 2.226,2.226 0 0 0 5.546,25.353 2.809,2.809 0 0 1 5.2,24.8 1.526,1.526 0 0 1 3.938,24.028 3.372,3.372 0 0 1 3.67,22.461 0.124,0.124 0 0 1 3.794,22.337 h 1 z m 7.326,0.513 H 13.2 a 0.124,0.124 0 0 1 0.124,0.123 3.242,3.242 0 0 1 -0.286,1.57 1.58,1.58 0 0 1 -1.279,0.769 2.555,2.555 0 0 1 -0.371,0.556 2.243,2.243 0 0 0 2.093,-1.051 4.693,4.693 0 0 0 0.387,-2.479 h -1.755 z"
         transform="translate(-2.775,-19.623)"
         fill="#f9c809" />
      <path
         id="Path_27056-2"
         data-name="Path 27056"
         d="m 30.335,102.742 h 0.078 a 0.774,0.774 0 0 1 0.549,0.226 v 0 a 0.772,0.772 0 0 1 0.228,0.549 v 1.07 a 0.178,0.178 0 0 1 -0.178,0.178 h -6.024 a 0.178,0.178 0 0 1 -0.178,-0.178 v -1.067 a 0.771,0.771 0 0 1 0.228,-0.552 v 0 a 0.771,0.771 0 0 1 0.548,-0.228 h 4.75 z"
         transform="translate(-22.321,-92.397)"
         fill="#222222" />
      <path
         id="Path_27057-2"
         data-name="Path 27057"
         d="M 35.413,107.991 H 31.9 a 0.425,0.425 0 0 0 -0.3,0.126 v 0 a 0.429,0.429 0 0 0 -0.126,0.3 v 0.532 h 5.042 v -0.532 a 0.429,0.429 0 0 0 -0.127,-0.3 0.434,0.434 0 0 0 -0.3,-0.127 z"
         transform="translate(-28.311,-97.118)"
         fill="#ead79e" />
      <path
         id="Path_27058-2"
         data-name="Path 27058"
         d="m 25.367,11.737 h 0.6 V 9.946 C 23.739,9.153 23.529,6.422 23,2.64 h -0.47 v 2.7 a 7.2,7.2 0 0 0 0.45,2.36 3.845,3.845 0 0 0 0.845,1.289 6.912,6.912 0 0 0 0.676,0.582 c 0.705,0.555 1.216,0.958 0.866,2.166 z"
         transform="translate(-20.271,-2.374)"
         fill="#f8b705" />
      <path
         id="Path_27059-2"
         data-name="Path 27059"
         d="m 30.135,11.737 h 0.633 c -0.391,-1.28 0.169,-1.711 0.906,-2.27 0.81,-0.618 1.862,-1.422 1.862,-4.062 V 2.64 H 27.16 c 0.344,2.444 0.554,4.447 1.259,5.775 a 3.94,3.94 0 0 0 0.939,1.12 2.95,2.95 0 0 0 0.551,0.319 1.923,1.923 0 0 0 0.222,0.074 v 0.015 h 0.007 v 1.793 z"
         transform="translate(-24.435,-2.374)"
         fill="#fac809" />
      <path
         id="Path_27060-2"
         data-name="Path 27060"
         d="m 44.345,19.107 0.282,0.692 0.744,0.056 a 0.191,0.191 0 0 1 0.1,0.343 l -0.563,0.477 0.177,0.723 a 0.191,0.191 0 0 1 -0.142,0.231 0.189,0.189 0 0 1 -0.15,-0.026 L 44.167,21.208 43.534,21.6 A 0.191,0.191 0 0 1 43.27,21.538 0.186,0.186 0 0 1 43.247,21.393 l 0.176,-0.723 -0.57,-0.483 a 0.192,0.192 0 0 1 0.11,-0.337 l 0.744,-0.05 0.283,-0.689 a 0.192,0.192 0 0 1 0.354,0 z"
         transform="translate(-38.489,-17.08)"
         fill="#f39d00" />
      <path
         id="Path_27061-2"
         data-name="Path 27061"
         d="m 45.879,20.86 0.327,0.8 0.862,0.065 -0.659,0.559 0.2,0.838 -0.734,-0.454 -0.734,0.454 0.2,-0.838 -0.659,-0.559 0.861,-0.065 0.328,-0.8 z"
         transform="translate(-40.2,-18.76)"
         fill="#ffffff" />
      <path
         id="Path_27062-2"
         data-name="Path 27062"
         d="m 71.08,15.3 -0.007,0.01 a 0.382,0.382 0 0 0 -0.52,0.084 l -0.01,-0.008 a 0.354,0.354 0 0 0 0.062,-0.277 0.359,0.359 0 0 0 -0.145,-0.244 2.7,2.7 0 0 0 0.284,0.053 0.36,0.36 0 0 0 0.244,-0.146 l 0.01,0.007 A 0.384,0.384 0 0 0 71.08,15.3 Z m 0.77,-1.291 -0.007,0.01 a 0.381,0.381 0 0 0 -0.52,0.083 l -0.01,-0.007 a 0.382,0.382 0 0 0 -0.084,-0.52 l 0.007,-0.01 a 0.383,0.383 0 0 0 0.521,-0.084 l 0.009,0.008 a 0.382,0.382 0 0 0 0.084,0.519 z m 0.006,-1.365 -0.013,0.018 a 0.7,0.7 0 0 0 -0.952,0.152 l -0.018,-0.013 a 0.7,0.7 0 0 0 -0.152,-0.949 l 0.013,-0.018 a 0.7,0.7 0 0 0 0.952,-0.152 l 0.018,0.013 a 0.7,0.7 0 0 0 0.152,0.949 z"
         transform="translate(-63.376,-10.504)"
         fill="#ffffff"
         fill-rule="evenodd" />
    </g>
    <g
       id="trophy-icon-3"
       data-name="trophy-icon"
       transform="translate(220.758,93.946)">
      <path
         id="Path_27054-3"
         data-name="Path 27054"
         d="m 0.294,1.769 h 1.571 q 0,-0.378 0.006,-0.78 V 0 h 6.9 V 1.77 H 10.4 a 0.291,0.291 0 0 1 0.29,0.277 7.332,7.332 0 0 1 -0.038,1.312 3.21,3.21 0 0 1 -0.363,1.172 2.055,2.055 0 0 1 -0.831,0.812 3.012,3.012 0 0 1 -1.312,0.321 5.575,5.575 0 0 1 -1.2,1.2 C 6.364,7.309 5.926,7.644 6.266,8.67 h 0.509 a 0.74,0.74 0 0 1 0.738,0.738 v 0.3 H 7.586 A 0.726,0.726 0 0 1 8.1,9.919 v 0 a 0.724,0.724 0 0 1 0.213,0.514 v 0.494 A 0.167,0.167 0 0 1 8.146,11.094 H 2.5 A 0.167,0.167 0 0 1 2.333,10.927 V 10.433 A 0.723,0.723 0 0 1 2.546,9.919 v 0 A 0.723,0.723 0 0 1 3.06,9.7 H 3.133 V 9.4 A 0.732,0.732 0 0 1 3.35,8.88 v 0 A 0.737,0.737 0 0 1 3.87,8.664 H 4.442 C 4.742,7.695 4.348,7.382 3.797,6.949 A 4.2,4.2 0 0 1 2.572,5.664 3.009,3.009 0 0 1 1.218,5.337 2.027,2.027 0 0 1 0.394,4.525 3.216,3.216 0 0 1 0.039,3.359 7.373,7.373 0 0 1 0,2.067 V 2.06 A 0.291,0.291 0 0 1 0.292,1.769 Z M 8.743,2.832 A 11.486,11.486 0 0 1 8.554,4.532 1.432,1.432 0 0 0 9.026,4.353 0.99,0.99 0 0 0 9.374,3.986 1.7,1.7 0 0 0 9.556,3.42 4.283,4.283 0 0 0 9.603,2.83 h -0.86 z m -6.853,0 H 1.123 A 4.7,4.7 0 0 0 1.165,3.424 1.738,1.738 0 0 0 1.335,3.99 0.956,0.956 0 0 0 1.672,4.356 1.375,1.375 0 0 0 2.118,4.531 8.685,8.685 0 0 1 1.89,2.831 Z"
         fill="#f39d00" />
      <path
         id="Path_27055-3"
         data-name="Path 27055"
         d="M 4.681,21.82 H 3.088 A 4.392,4.392 0 0 0 3.446,24.143 2.087,2.087 0 0 0 5.393,25.13 2.634,2.634 0 0 1 5.064,24.61 1.431,1.431 0 0 1 3.88,23.886 3.162,3.162 0 0 1 3.629,22.416 0.116,0.116 0 0 1 3.745,22.3 h 0.936 z m 6.87,0.481 h 1.021 a 0.116,0.116 0 0 1 0.116,0.115 3.04,3.04 0 0 1 -0.268,1.473 1.481,1.481 0 0 1 -1.2,0.721 2.4,2.4 0 0 1 -0.348,0.521 2.1,2.1 0 0 0 1.961,-0.986 4.4,4.4 0 0 0 0.363,-2.324 H 11.55 Z"
         transform="translate(-2.794,-19.76)"
         fill="#f9c809" />
      <path
         id="Path_27056-3"
         data-name="Path 27056"
         d="m 29.991,102.742 h 0.073 a 0.726,0.726 0 0 1 0.514,0.211 v 0 a 0.724,0.724 0 0 1 0.213,0.514 v 1 a 0.167,0.167 0 0 1 -0.167,0.167 h -5.647 a 0.167,0.167 0 0 1 -0.167,-0.167 v -1 a 0.723,0.723 0 0 1 0.213,-0.517 v 0 a 0.723,0.723 0 0 1 0.514,-0.213 h 4.454 z"
         transform="translate(-22.477,-93.041)"
         fill="#222222" />
      <path
         id="Path_27057-3"
         data-name="Path 27057"
         d="m 35.168,107.991 h -3.3 a 0.4,0.4 0 0 0 -0.283,0.118 v 0 a 0.4,0.4 0 0 0 -0.118,0.283 v 0.5 H 36.2 v -0.5 a 0.4,0.4 0 0 0 -0.119,-0.283 0.407,0.407 0 0 0 -0.283,-0.119 z"
         transform="translate(-28.509,-97.796)"
         fill="#ead79e" />
      <path
         id="Path_27058-3"
         data-name="Path 27058"
         d="m 25.19,11.17 h 0.566 V 9.491 C 23.663,8.747 23.466,6.191 22.966,2.64 H 22.53 v 2.527 a 6.753,6.753 0 0 0 0.422,2.218 3.605,3.605 0 0 0 0.792,1.208 6.48,6.48 0 0 0 0.633,0.546 c 0.662,0.521 1.142,0.898 0.813,2.031 z"
         transform="translate(-20.412,-2.391)"
         fill="#f8b705" />
      <path
         id="Path_27059-3"
         data-name="Path 27059"
         d="m 29.95,11.17 h 0.594 c -0.366,-1.2 0.159,-1.6 0.85,-2.129 0.76,-0.58 1.746,-1.333 1.746,-3.809 V 2.64 h -5.98 c 0.323,2.292 0.519,4.17 1.181,5.415 a 3.7,3.7 0 0 0 0.881,1.051 2.766,2.766 0 0 0 0.516,0.3 1.8,1.8 0 0 0 0.209,0.07 V 9.49 h 0.007 v 1.68 z"
         transform="translate(-24.605,-2.391)"
         fill="#fac809" />
      <path
         id="Path_27060-3"
         data-name="Path 27060"
         d="m 44.248,19.1 0.264,0.649 0.7,0.053 a 0.179,0.179 0 0 1 0.094,0.322 l -0.528,0.447 0.166,0.678 A 0.179,0.179 0 0 1 44.811,21.465 0.177,0.177 0 0 1 44.67,21.44 l -0.587,-0.37 -0.594,0.367 A 0.179,0.179 0 0 1 43.242,21.378 0.175,0.175 0 0 1 43.22,21.242 l 0.165,-0.678 -0.534,-0.453 a 0.18,0.18 0 0 1 0.1,-0.316 l 0.7,-0.047 0.265,-0.646 a 0.18,0.18 0 0 1 0.332,0 z"
         transform="translate(-38.757,-17.199)"
         fill="#f39d00" />
      <path
         id="Path_27061-3"
         data-name="Path 27061"
         d="m 45.8,20.86 0.307,0.748 0.808,0.061 -0.618,0.524 0.192,0.785 -0.688,-0.426 -0.688,0.426 0.192,-0.785 -0.618,-0.524 0.807,-0.061 0.308,-0.748 z"
         transform="translate(-40.481,-18.891)"
         fill="#ffffff" />
      <path
         id="Path_27062-3"
         data-name="Path 27062"
         d="m 71.042,15.073 -0.007,0.009 a 0.358,0.358 0 0 0 -0.488,0.078 l -0.009,-0.008 a 0.332,0.332 0 0 0 0.059,-0.26 0.337,0.337 0 0 0 -0.136,-0.228 2.529,2.529 0 0 0 0.266,0.05 0.338,0.338 0 0 0 0.228,-0.137 l 0.009,0.007 a 0.36,0.36 0 0 0 0.078,0.489 z m 0.722,-1.21 -0.007,0.009 a 0.357,0.357 0 0 0 -0.488,0.077 L 71.26,13.942 a 0.358,0.358 0 0 0 -0.078,-0.488 l 0.007,-0.009 a 0.359,0.359 0 0 0 0.489,-0.078 l 0.008,0.008 a 0.358,0.358 0 0 0 0.078,0.488 z m 0.006,-1.28 -0.012,0.017 a 0.655,0.655 0 0 0 -0.893,0.143 l -0.017,-0.012 a 0.652,0.652 0 0 0 -0.143,-0.89 l 0.012,-0.017 a 0.655,0.655 0 0 0 0.893,-0.143 l 0.017,0.012 a 0.652,0.652 0 0 0 0.143,0.89 z"
         transform="translate(-63.818,-10.577)"
         fill="#ffffff"
         fill-rule="evenodd" />
    </g>
  </g>
</svg>
