<svg xmlns="http://www.w3.org/2000/svg" width="19" height="19" viewBox="0 0 19 19">
  <g id="Group_13797" data-name="Group 13797" transform="translate(-47 -354.04)">
    <circle id="Ellipse_313" data-name="Ellipse 313" cx="9.5" cy="9.5" r="9.5" transform="translate(47 354.04)" fill="#494fc7"/>
    <path id="google-icon_1_" data-name="google-icon (1)" d="M11.716,4.574V6.409H14.75a2.89,2.89,0,0,1-3.035,2.307,3.378,3.378,0,0,1,0-6.755,3.012,3.012,0,0,1,2.132.825l1.453-1.4a5.12,5.12,0,0,0-3.584-1.4,5.351,5.351,0,1,0,0,10.7,4.937,4.937,0,0,0,5.137-5.228,4.891,4.891,0,0,0-.084-.886l-5.054,0h0Z" transform="translate(45.215 358.487)" fill="#fff" fill-rule="evenodd"/>
  </g>
</svg>
